<?xml version="1.0" encoding="utf-8"?>
<!-- Generator: Adobe Illustrator 22.0.1, SVG Export Plug-In . SVG Version: 6.00 Build 0)  -->
<svg version="1.1" id="레이어_1" xmlns="http://www.w3.org/2000/svg" xmlns:xlink="http://www.w3.org/1999/xlink" x="0px"
	 y="0px" viewBox="0 0 215.4 60.1" enable-background="new 0 0 215.4 60.1" xml:space="preserve">
<g>
	<path fill="#FFFFFF" d="M71.3,28.8c0.4-0.2,0.8-0.5,1.1-0.8c0.3-0.3,0.5-0.7,0.7-1.1s0.2-0.8,0.2-1.2v-0.9c0-0.4-0.1-0.8-0.2-1.2
		c-0.2-0.4-0.4-0.8-0.7-1.1c-0.3-0.3-0.7-0.6-1.1-0.8c-0.4-0.2-0.9-0.3-1.5-0.3c-0.6,0-1.1,0.1-1.5,0.3c-0.4,0.2-0.8,0.5-1.1,0.8
		c-0.3,0.3-0.5,0.7-0.7,1.1c-0.2,0.4-0.2,0.8-0.2,1.2v0.9c0,0.4,0.1,0.8,0.2,1.2s0.4,0.8,0.7,1.1c0.3,0.3,0.7,0.6,1.1,0.8
		c0.4,0.2,0.9,0.3,1.5,0.3C70.4,29.1,70.9,29,71.3,28.8z"/>
	<rect x="42.3" y="36.8" fill="#FFFFFF" width="9.8" height="3.1"/>
	<path fill="#FFFFFF" d="M43.9,22.2c-0.3-0.3-0.7-0.5-1.1-0.7c-0.4-0.2-0.9-0.3-1.5-0.3c-0.6,0-1,0.1-1.5,0.3
		c-0.4,0.2-0.8,0.4-1.1,0.7c-0.3,0.3-0.5,0.6-0.7,0.9c-0.2,0.3-0.2,0.7-0.2,1.1v0.7c0,0.4,0.1,0.7,0.2,1.1c0.2,0.3,0.4,0.7,0.7,0.9
		c0.3,0.3,0.7,0.5,1.1,0.7c0.4,0.2,0.9,0.3,1.5,0.3c0.6,0,1-0.1,1.5-0.3c0.4-0.2,0.8-0.4,1.1-0.7c0.3-0.3,0.5-0.6,0.7-0.9
		c0.2-0.3,0.2-0.7,0.2-1.1v-0.7c0-0.4-0.1-0.7-0.2-1.1C44.4,22.8,44.2,22.5,43.9,22.2z"/>
	<rect x="118.1" y="28" fill="#FFFFFF" width="6.2" height="5.6"/>
	<path fill="#FFFFFF" d="M0,0v60.1h215.4V0H0z M77,27.2h3.7v-3.5H77v-2.2h3.7v-3.2h2.5v17h-2.5v-5.9H77V27.2z M24.6,25
		c0,0.8,0,1.5-0.1,2.1c0,0.6-0.2,1.2-0.4,1.8c-0.2,0.6-0.5,1.1-0.9,1.7c-0.4,0.5-1,1.1-1.7,1.7c-0.7,0.6-1.6,1.3-2.7,2
		c-1.1,0.7-2.4,1.6-4,2.5l-1.3-2c1.4-0.8,2.5-1.5,3.5-2.2c1-0.6,1.8-1.2,2.4-1.7c0.6-0.5,1.1-1,1.5-1.5c0.4-0.5,0.6-0.9,0.8-1.4
		c0.2-0.5,0.3-0.9,0.3-1.4c0-0.5,0.1-1.1,0.1-1.7v-2.4h-8.1v-2.2h10.7V25z M32.2,42.1h-2.6V18.2h2.6V42.1z M54.6,42.1H39.7V31.6h2.5
		v3h9.8v-3h2.5V42.1z M54.6,30.4h-2.5v-4.8h-4.8c-0.1,0.6-0.2,1.1-0.5,1.6s-0.7,1-1.2,1.4c-0.5,0.4-1.1,0.7-1.8,1
		c-0.7,0.2-1.5,0.4-2.4,0.4c-1,0-1.8-0.1-2.6-0.4c-0.7-0.3-1.4-0.7-1.8-1.2c-0.5-0.5-0.9-1-1.1-1.6c-0.3-0.6-0.4-1.2-0.4-1.8v-1
		c0-0.6,0.1-1.2,0.4-1.8c0.2-0.6,0.6-1.1,1.1-1.6c0.5-0.5,1.1-0.9,1.8-1.1c0.7-0.3,1.6-0.4,2.6-0.4c0.9,0,1.7,0.1,2.4,0.4
		c0.7,0.3,1.3,0.6,1.8,1c0.5,0.4,0.9,0.9,1.2,1.4c0.3,0.5,0.5,1.1,0.6,1.6h4.8v-5.2h2.5V30.4z M65.4,29.6c-0.5-0.5-0.9-1.1-1.1-1.8
		c-0.2-0.7-0.4-1.3-0.4-1.9v-1.3c0-0.6,0.1-1.3,0.4-1.9c0.3-0.7,0.6-1.2,1.1-1.8s1.1-1,1.9-1.3c0.7-0.3,1.6-0.5,2.6-0.5
		c1,0,1.8,0.2,2.6,0.5c0.7,0.3,1.4,0.8,1.9,1.3s0.9,1.1,1.1,1.8c0.2,0.7,0.4,1.3,0.4,1.9v1.3c0,0.6-0.1,1.3-0.4,1.9
		c-0.3,0.7-0.6,1.2-1.1,1.8s-1.1,1-1.9,1.3c-0.7,0.3-1.6,0.5-2.6,0.5c-1,0-1.8-0.2-2.6-0.5C66.5,30.6,65.9,30.1,65.4,29.6z
		 M83.9,41.8H68.4v-7.9H71v5.7h12.9V41.8z M85.8,20.8h5.5v-2.8h2.5v2.8h5.7v2.1H85.8V20.8z M87.5,30.1c-0.2-0.5-0.3-1-0.3-1.5v-0.8
		c0-0.5,0.1-1,0.3-1.5s0.6-0.9,1-1.3c0.5-0.4,1-0.7,1.7-0.9c0.7-0.2,1.5-0.3,2.5-0.3c0.9,0,1.8,0.1,2.5,0.4c0.7,0.2,1.3,0.6,1.7,0.9
		c0.5,0.4,0.8,0.8,1,1.3c0.2,0.5,0.3,1,0.3,1.5v0.8c0,0.5-0.1,1-0.3,1.5c-0.2,0.5-0.6,0.9-1,1.3c-0.5,0.4-1,0.7-1.7,0.9
		c-0.7,0.2-1.5,0.4-2.5,0.4c-1,0-1.8-0.1-2.5-0.4c-0.7-0.2-1.3-0.6-1.7-0.9C88,31,87.7,30.6,87.5,30.1z M105.5,42.3H103v-5.8H89.8
		v-2.2h15.7V42.3z M105.5,33.1H103v-2.4h-3.5v-2.2h3.5v-2.4h-3.5v-2.2h3.5v-5.7h2.5V33.1z M126.8,35.8h-11.2V20.2h2.5v5.6h6.2v-5.6
		h2.5V35.8z M133,42.1h-2.6V18.2h2.6v8.6h3.7V29H133V42.1z M158.4,38.9h-21.9v-2.2h9.7v-3.9h-6.6v-7.5h13.1v-3.1h-13.2v-2.2h15.7
		v7.4h-13.1v3.1h13.6v2.2h-7.1v3.9h9.7V38.9z M180.7,38.9h-21.9v-2.2h9.6v-4.5h-6.6V20h2.5v4.1h10.7V20h2.5v12.3H171v4.5h9.7V38.9z
		 M193.2,25c0,0.8,0,1.5-0.1,2.1c0,0.6-0.2,1.2-0.4,1.8c-0.2,0.6-0.5,1.1-0.9,1.7c-0.4,0.5-1,1.1-1.7,1.7c-0.7,0.6-1.6,1.3-2.7,2
		c-1.1,0.7-2.4,1.6-4,2.5l-1.3-2c1.4-0.8,2.5-1.5,3.5-2.2c1-0.6,1.8-1.2,2.4-1.7c0.6-0.5,1.1-1,1.5-1.5c0.4-0.5,0.6-0.9,0.8-1.4
		c0.2-0.5,0.3-0.9,0.3-1.4c0-0.5,0.1-1.1,0.1-1.7v-2.4h-8.1v-2.2h10.7V25z M200.8,42.1h-2.6V18.2h2.6V42.1z"/>
	<rect x="164.4" y="26.2" fill="#FFFFFF" width="10.7" height="3.8"/>
	<path fill="#FFFFFF" d="M91.3,30.5c0.4,0.1,0.8,0.2,1.4,0.2c0.5,0,1-0.1,1.4-0.2c0.4-0.1,0.7-0.3,1-0.5c0.3-0.2,0.5-0.4,0.6-0.7
		c0.1-0.3,0.2-0.5,0.2-0.8V28c0-0.3-0.1-0.5-0.2-0.8c-0.1-0.3-0.3-0.5-0.6-0.7c-0.3-0.2-0.6-0.4-1-0.5c-0.4-0.1-0.8-0.2-1.4-0.2
		c-0.5,0-1,0.1-1.4,0.2c-0.4,0.1-0.7,0.3-1,0.5c-0.3,0.2-0.4,0.4-0.6,0.7c-0.1,0.3-0.2,0.5-0.2,0.8v0.6c0,0.3,0.1,0.5,0.2,0.8
		c0.1,0.3,0.3,0.5,0.6,0.7C90.6,30.2,90.9,30.4,91.3,30.5z"/>
</g>
</svg>
