<?xml version="1.0" encoding="utf-8"?>
<!-- Generator: Adobe Illustrator 22.0.1, SVG Export Plug-In . SVG Version: 6.00 Build 0)  -->
<svg version="1.1" id="레이어_1" xmlns="http://www.w3.org/2000/svg" xmlns:xlink="http://www.w3.org/1999/xlink" x="0px"
	 y="0px" viewBox="0 0 150 150" enable-background="new 0 0 150 150" xml:space="preserve">
<g>
	<path fill="#FFFFFF" d="M107.8,96.3L96.9,77.4L84.6,56.1V29.6h2.8c1.2,0,2.2-1,2.2-2.2v-0.6c0-1.2-1-2.2-2.2-2.2H63.2
		c-1.2,0-2.2,1-2.2,2.2v0.6c0,1.2,1,2.2,2.2,2.2h2.8v26.5L53.6,77.4L42.8,96.3c-4.8,8.3,1.2,18.6,10.8,18.6h21.8h21.8
		C106.6,114.9,112.6,104.6,107.8,96.3z"/>
	<path fill="#FF7C24" d="M114.2,92.9l-8.6-15c-0.5-0.9-0.4-2.1,0.4-2.9l5.6-5.6l-5.6-5.6l-5.6,5.6c-3.3,3.3-4,8.5-1.6,12.5l8.6,15
		c2,3.5,2,7.7,0,11.3c-2,3.5-5.7,5.6-9.8,5.6H79.3V65.7h-8v48.1H53.1c-4.1,0-7.7-2.1-9.8-5.6c-2-3.5-2-7.7,0-11.3l7.9-13.7
		c2.8-4.8,2-10.9-1.9-14.8l-5.5-5.5l-5.6,5.6l5.5,5.5c1.4,1.4,1.6,3.5,0.7,5.1l-7.9,13.7c-3.5,6-3.5,13.2,0,19.3s9.7,9.6,16.7,9.6
		h44.4c7,0,13.2-3.6,16.7-9.6S117.6,98.9,114.2,92.9z"/>
	<g>
		<path fill="#FFFFFF" d="M23.9,102.5c-0.6,0-1.2-0.3-1.4-0.9c-7.7-16-7.7-35,0-51c0.4-0.8,1.3-1.1,2.1-0.7c0.8,0.4,1.1,1.3,0.7,2.1
			c-7.3,15.1-7.3,33.1,0,48.2c0.4,0.8,0.1,1.7-0.7,2.1C24.4,102.5,24.2,102.5,23.9,102.5z"/>
	</g>
	<g>
		<path fill="#FFFFFF" d="M29.3,93.9c-0.6,0-1.2-0.3-1.4-0.9c-5.1-10.5-5.1-23.1,0-33.6c0.4-0.8,1.3-1.1,2.1-0.7
			c0.8,0.4,1.1,1.3,0.7,2.1c-4.7,9.7-4.7,21.2,0,30.9c0.4,0.8,0.1,1.7-0.7,2.1C29.8,93.8,29.5,93.9,29.3,93.9z"/>
	</g>
	<g>
		<path fill="#FFFFFF" d="M126.6,102.5c-0.2,0-0.5-0.1-0.7-0.2c-0.8-0.4-1.1-1.3-0.7-2.1c7.3-15.1,7.3-33.1,0-48.2
			c-0.4-0.8-0.1-1.7,0.7-2.1c0.8-0.4,1.7-0.1,2.1,0.7c7.7,16,7.7,35,0,51C127.8,102.2,127.2,102.5,126.6,102.5z"/>
	</g>
	<g>
		<path fill="#FFFFFF" d="M121.3,93.9c-0.2,0-0.5-0.1-0.7-0.2c-0.8-0.4-1.1-1.3-0.7-2.1c4.7-9.7,4.7-21.2,0-30.9
			c-0.4-0.8-0.1-1.7,0.7-2.1c0.8-0.4,1.7-0.1,2.1,0.7c5.1,10.5,5.1,23.1,0,33.6C122.4,93.6,121.9,93.9,121.3,93.9z"/>
	</g>
</g>
</svg>
