<?xml version="1.0" encoding="utf-8"?>
<!-- Generator: Adobe Illustrator 22.0.1, SVG Export Plug-In . SVG Version: 6.00 Build 0)  -->
<svg version="1.1" id="레이어_1" xmlns="http://www.w3.org/2000/svg" xmlns:xlink="http://www.w3.org/1999/xlink" x="0px"
	 y="0px" viewBox="0 0 150 150" enable-background="new 0 0 150 150" xml:space="preserve">
<g>
	<g>
		<g>
			<path fill="#FFFFFF" d="M75.1,40.9l-9.6-9.7c-1.1-1.1-1.1-2.9,0-4.1c1.1-1.1,2.9-1.1,4.1,0l5.5,5.6l5.5-5.6
				c1.1-1.1,2.9-1.1,4.1,0c1.1,1.1,1.1,2.9,0,4.1L75.1,40.9z"/>
		</g>
		<g>
			<polygon fill="#FFFFFF" points="75.1,49.3 66.3,40.4 68.7,38 75.1,44.4 81.4,38 83.8,40.4 			"/>
		</g>
		<g>
			<path fill="#FFFFFF" d="M82.6,123.7c-0.7,0-1.5-0.3-2-0.9l-5.5-5.6l-5.5,5.6c-1.1,1.1-2.9,1.1-4.1,0c-1.1-1.1-1.1-2.9,0-4.1
				l9.6-9.7l9.6,9.7c1.1,1.1,1.1,2.9,0,4.1C84.1,123.4,83.3,123.7,82.6,123.7z"/>
		</g>
		<g>
			<polygon fill="#FFFFFF" points="81.4,112 75.1,105.6 68.7,112 66.3,109.6 75.1,100.7 83.8,109.6 			"/>
		</g>
	</g>
	<path fill="#FFFFFF" d="M97.6,72.1c-1.3-10.3-9.4-18.4-19.7-19.7V36.8h-5.7v15.6c-10.3,1.3-18.4,9.4-19.7,19.7H36.9v5.7h15.6
		c1.3,10.3,9.4,18.4,19.7,19.7v16.6h5.7V97.6c10.3-1.3,18.4-9.4,19.7-19.7h15.6v-5.7H97.6z M72.2,58.2v6.7c-3.5,1-6.2,3.7-7.2,7.2
		h-6.7C59.5,65,65.1,59.4,72.2,58.2z M58.3,77.9H65c1,3.5,3.7,6.2,7.2,7.2v6.7C65.1,90.6,59.5,85,58.3,77.9z M77.9,91.8v-6.7
		c3.5-1,6.2-3.7,7.2-7.2h6.7C90.6,85,85,90.6,77.9,91.8z M85.2,72.1c-1-3.5-3.7-6.2-7.2-7.2v-6.7C85,59.4,90.6,65,91.8,72.1H85.2z"
		/>
	<g>
		<g>
			
				<rect x="72.3" y="45.7" transform="matrix(0.7071 -0.7071 0.7071 0.7071 -31.0823 75.1224)" fill="#FFFFFF" width="5.7" height="58.7"/>
		</g>
		<g>
			<polygon fill="#FFFFFF" points="49.8,49.7 37.3,49.7 37.3,46.2 46.3,46.3 46.3,37.3 49.7,37.3 			"/>
		</g>
		<g>
			<path fill="#FFFFFF" d="M56.9,56.8l-12.5-0.1c-1,0-1.7-0.8-1.7-1.7c0-0.9,0.8-1.7,1.7-1.7c0,0,0,0,0,0l9,0l0-9
				c0-1,0.8-1.7,1.7-1.7c0,0,0,0,0,0c0.9,0,1.7,0.8,1.7,1.7L56.9,56.8z"/>
		</g>
		<g>
			<polygon fill="#FF7C24" points="100.4,112.7 100.3,100.3 112.8,100.3 112.8,103.8 103.8,103.7 103.8,112.7 			"/>
		</g>
		<g>
			<path fill="#FF7C24" d="M95,107.4c-0.9,0-1.7-0.8-1.7-1.7l-0.1-12.5l12.5,0.1c1,0,1.7,0.8,1.7,1.7c0,0.9-0.8,1.7-1.7,1.7
				c0,0,0,0,0,0l-9,0l0,9C96.7,106.6,96,107.4,95,107.4C95,107.4,95,107.4,95,107.4z"/>
		</g>
	</g>
	<g>
		<g>
			<path fill="#FF7C24" d="M29.3,85.4c-0.7,0-1.5-0.3-2-0.9c-1.1-1.1-1.1-2.9,0-4.1l5.6-5.5l-5.6-5.5c-1.1-1.1-1.1-2.9,0-4.1
				c1.1-1.1,2.9-1.1,4.1,0L41,75l-9.7,9.6C30.7,85.2,30,85.4,29.3,85.4z"/>
		</g>
		<g>
			<polygon fill="#FF7C24" points="40.5,83.8 38.1,81.3 44.5,75 38.1,68.7 40.5,66.2 49.4,75 			"/>
		</g>
		<g>
			<path fill="#FFFFFF" d="M120.9,85.4c-0.7,0-1.5-0.3-2-0.8l-9.7-9.6l9.7-9.6c1.1-1.1,2.9-1.1,4.1,0c1.1,1.1,1.1,2.9,0,4.1
				l-5.6,5.5l5.6,5.5c1.1,1.1,1.1,2.9,0,4.1C122.3,85.1,121.6,85.4,120.9,85.4z"/>
		</g>
		<g>
			<polygon fill="#FFFFFF" points="109.6,83.8 100.8,75 109.6,66.2 112,68.7 105.7,75 112,81.3 			"/>
		</g>
	</g>
	<g>
		<g>
			
				<rect x="45.6" y="72.3" transform="matrix(0.7071 -0.7071 0.7071 0.7071 -31.2545 74.9569)" fill="#FFFFFF" width="58.6" height="5.7"/>
		</g>
		<g>
			<polygon fill="#FFFFFF" points="49.7,112.7 46.3,112.7 46.3,103.7 37.3,103.8 37.3,100.3 49.8,100.3 			"/>
		</g>
		<g>
			<path fill="#FFFFFF" d="M55.1,107.4C55.1,107.4,55.1,107.4,55.1,107.4c-1,0-1.7-0.8-1.7-1.7l0-9l-9,0c0,0,0,0,0,0
				c-0.9,0-1.7-0.8-1.7-1.7c0-1,0.8-1.7,1.7-1.7l12.5-0.1l-0.1,12.5C56.8,106.6,56.1,107.4,55.1,107.4z"/>
		</g>
		<g>
			<polygon fill="#FF7C24" points="100.3,49.7 100.4,37.3 103.8,37.3 103.8,46.3 112.8,46.2 112.8,49.7 			"/>
		</g>
		<g>
			<path fill="#FF7C24" d="M93.2,56.8l0.1-12.5c0-0.9,0.8-1.7,1.7-1.7c0,0,0,0,0,0c1,0,1.7,0.8,1.7,1.7l0,9l9,0c0,0,0,0,0,0
				c0.9,0,1.7,0.8,1.7,1.7c0,1-0.8,1.7-1.7,1.7L93.2,56.8z"/>
		</g>
	</g>
</g>
</svg>
