<?xml version="1.0" encoding="utf-8"?>
<!-- Generator: Adobe Illustrator 22.0.1, SVG Export Plug-In . SVG Version: 6.00 Build 0)  -->
<svg version="1.1" id="레이어_1" xmlns="http://www.w3.org/2000/svg" xmlns:xlink="http://www.w3.org/1999/xlink" x="0px"
	 y="0px" viewBox="0 0 150 150" enable-background="new 0 0 150 150" xml:space="preserve">
<g>
	<rect x="45.5" y="84.3" fill="#FFFFFF" width="58.9" height="8.7"/>
	<path fill="none" d="M89.1,30.5H60.9v43.8h28.2V30.5z M67.8,67.6c-1.4,0-2.5-1.1-2.5-2.5s1.1-2.5,2.5-2.5s2.5,1.1,2.5,2.5
		S69.2,67.6,67.8,67.6z M67.8,55.9c-1.4,0-2.5-1.1-2.5-2.5s1.1-2.5,2.5-2.5s2.5,1.1,2.5,2.5S69.2,55.9,67.8,55.9z M67.8,44.3
		c-1.4,0-2.5-1.1-2.5-2.5s1.1-2.5,2.5-2.5s2.5,1.1,2.5,2.5S69.2,44.3,67.8,44.3z M82.2,67.6c-1.4,0-2.5-1.1-2.5-2.5s1.1-2.5,2.5-2.5
		s2.5,1.1,2.5,2.5S83.6,67.6,82.2,67.6z M82.2,55.9c-1.4,0-2.5-1.1-2.5-2.5s1.1-2.5,2.5-2.5s2.5,1.1,2.5,2.5S83.6,55.9,82.2,55.9z
		 M82.2,44.3c-1.4,0-2.5-1.1-2.5-2.5s1.1-2.5,2.5-2.5s2.5,1.1,2.5,2.5S83.6,44.3,82.2,44.3z"/>
	<polygon fill="none" points="94.1,79.3 55.9,79.3 44.5,79.3 40.2,83.7 40.2,115.5 109.8,115.5 109.8,83.7 105.5,79.3 	"/>
	<path fill="#FFFFFF" d="M82.2,62.6c-1.4,0-2.5,1.1-2.5,2.5s1.1,2.5,2.5,2.5s2.5-1.1,2.5-2.5S83.6,62.6,82.2,62.6z"/>
	<path fill="#FFFFFF" d="M82.2,39.3c-1.4,0-2.5,1.1-2.5,2.5s1.1,2.5,2.5,2.5s2.5-1.1,2.5-2.5S83.6,39.3,82.2,39.3z"/>
	<path fill="#FF7C24" d="M82.2,51c-1.4,0-2.5,1.1-2.5,2.5s1.1,2.5,2.5,2.5s2.5-1.1,2.5-2.5S83.6,51,82.2,51z"/>
	<path fill="#FF7C24" d="M67.8,62.6c-1.4,0-2.5,1.1-2.5,2.5s1.1,2.5,2.5,2.5s2.5-1.1,2.5-2.5S69.2,62.6,67.8,62.6z"/>
	<path fill="#FFFFFF" d="M67.8,51c-1.4,0-2.5,1.1-2.5,2.5s1.1,2.5,2.5,2.5s2.5-1.1,2.5-2.5S69.2,51,67.8,51z"/>
	<path fill="#FF7C24" d="M67.8,39.3c-1.4,0-2.5,1.1-2.5,2.5s1.1,2.5,2.5,2.5s2.5-1.1,2.5-2.5S69.2,39.3,67.8,39.3z"/>
	<path fill="#FFFFFF" d="M107.5,74.3H94.1v-5.8v-0.9v-4.9v-6.7V51v-7.8v-4.9v-1.9v-5.9h7.8v-4.9H48.2v4.9h7.8v5.7v2.1v4.9V51v4.9
		v6.7v4.9v2.8v3.9H42.5l-7.3,7.3v38.9h10.4v4h5v-4h48.9v4h5v-4h10.4V81.6L107.5,74.3z M60.9,30.5h28.2v43.8H60.9V30.5z M109.8,115.5
		H40.2V83.7l4.4-4.4h11.4h38.2h11.4l4.4,4.4V115.5z"/>
	<rect x="51" y="62.6" fill="#FF7C24" width="4.9" height="4.9"/>
	<rect x="49" y="38.3" fill="#FF7C24" width="7" height="4.9"/>
	<rect x="44.3" y="51" fill="#FF7C24" width="11.6" height="4.9"/>
	<rect x="94.1" y="62.6" fill="#FF7C24" width="4.9" height="4.9"/>
	<rect x="94.1" y="38.3" fill="#FF7C24" width="7" height="4.9"/>
	<rect x="94.1" y="51" fill="#FF7C24" width="11.6" height="4.9"/>
</g>
</svg>
