<?xml version="1.0" encoding="utf-8"?>
<!-- Generator: Adobe Illustrator 22.0.1, SVG Export Plug-In . SVG Version: 6.00 Build 0)  -->
<svg version="1.1" id="레이어_1" xmlns="http://www.w3.org/2000/svg" xmlns:xlink="http://www.w3.org/1999/xlink" x="0px"
	 y="0px" viewBox="0 0 150 150" enable-background="new 0 0 150 150" xml:space="preserve">
<g>
	<path fill="#FF7C24" d="M90.6,69.8H59.4c-3.9,0-7.1,3.2-7.1,7.1v31.3c0,3.9,3.2,7.1,7.1,7.1h31.3c3.9,0,7.1-3.2,7.1-7.1V76.8
		C97.7,72.9,94.5,69.8,90.6,69.8z M94.4,108.1c0,2.1-1.7,3.8-3.8,3.8H59.4c-2.1,0-3.8-1.7-3.8-3.8V76.8c0-2.1,1.7-3.8,3.8-3.8h31.3
		c2.1,0,3.8,1.7,3.8,3.8V108.1z"/>
	<path fill="#FF7C24" d="M79.5,93.5H66.1v-4.4h2.4v-3.7h-2.4v-3.2h2.4v-3.7h-2.4v-2.8h-3.7v17.8c-2.2,0.1-4,1.9-4,4.1v7.4
		c0,2.3,1.8,4.1,4.1,4.1h25c2.3,0,4.1-1.8,4.1-4.1v-7.4c0-2.3-1.8-4.1-4.1-4.1h-4.8H79.5z M88.4,105c0,0.5-0.4,0.9-0.9,0.9h-25
		c-0.5,0-0.9-0.4-0.9-0.9v-7.4c0-0.5,0.4-0.9,0.9-0.9h25c0.5,0,0.9,0.4,0.9,0.9V105z"/>
	<path fill="#FFFFFF" d="M51.3,70.1c0.8,0,1.5-0.7,1.5-1.5c0-0.8-0.7-1.5-1.5-1.5c-0.8,0-1.5,0.7-1.5,1.5
		C49.8,69.4,50.5,70.1,51.3,70.1z"/>
	<path fill="#FFFFFF" d="M99.5,67.1c-0.8,0-1.5,0.7-1.5,1.5c0,0.8,0.7,1.5,1.5,1.5c0.8,0,1.5-0.7,1.5-1.5
		C101.1,67.8,100.4,67.1,99.5,67.1z"/>
	<path fill="#FFFFFF" d="M51.3,113.5c-0.8,0-1.5,0.7-1.5,1.5s0.7,1.5,1.5,1.5c0.8,0,1.5-0.7,1.5-1.5S52.2,113.5,51.3,113.5z"/>
	<path fill="#FFFFFF" d="M99.5,113.5c-0.8,0-1.5,0.7-1.5,1.5s0.7,1.5,1.5,1.5c0.8,0,1.5-0.7,1.5-1.5S100.4,113.5,99.5,113.5z"/>
	<path fill="#FFFFFF" d="M122.8,66.9c0-9.6-7.8-17.4-17.4-17.4H80.5H75h-5.5v11.1h-7.1V25.4h-9.6v35.2h-0.3c-5.2,0-9.4,4.2-9.4,9.4
		v44.9c0,5.2,4.2,9.4,9.4,9.4h44.9c5.2,0,9.4-4.2,9.4-9.4v-11.4h15.8V66.9z M103.7,114.9c0,3.4-2.8,6.2-6.2,6.2H52.5
		c-3.4,0-6.2-2.8-6.2-6.2V70c0-3.4,2.8-6.2,6.2-6.2h44.9c3.4,0,6.2,2.8,6.2,6.2V114.9z M118.2,99h-11.3V70c0-5.2-4.2-9.4-9.4-9.4
		H80.5V54h24.9c7.1,0,12.8,5.7,12.8,12.8V99z"/>
</g>
</svg>
