<?xml version="1.0" encoding="utf-8"?>
<!-- Generator: Adobe Illustrator 22.0.1, SVG Export Plug-In . SVG Version: 6.00 Build 0)  -->
<svg version="1.1" id="레이어_1" xmlns="http://www.w3.org/2000/svg" xmlns:xlink="http://www.w3.org/1999/xlink" x="0px"
	 y="0px" viewBox="0 0 150 150" enable-background="new 0 0 150 150" xml:space="preserve">
<g>
	<g>
		<path fill="#CECECE" d="M122.3,51.9v-2.2h2.9v-5.5c0-2.9-2.3-5.2-5.2-5.2H98.3c-2.9,0-5.2,2.3-5.2,5.2v2.2h9.8
			c2.5,0,4.6,1.3,5.8,3.3h10.2v1.8h-9.4c0.1,0.6,0.2,1.1,0.2,1.7v1.6h10.1c3.2,0,5.7,2.6,5.7,5.7v3.6H112c0.6,1,1.1,2.2,1.3,3.3
			h12.3v25.5h-12.1v3.3h12.1v4.1c0,0.7-0.6,1.2-1.2,1.2h-10.8v3.3h10.8c2.5,0,4.6-2.1,4.6-4.6v-4.1V64.3v-3.6
			C128.9,56.5,126.1,53,122.3,51.9z M121.8,46.4H96.5v-2.2c0-1,0.8-1.8,1.8-1.8H120c1,0,1.8,0.8,1.8,1.8V46.4z"/>
		<path fill="#CECECE" d="M24.4,60.7c0-3.2,2.6-5.7,5.7-5.7h10.1v-1.6c0-0.6,0.1-1.2,0.2-1.7h-9.4v-1.8h10.2c1.2-2,3.4-3.3,5.8-3.3
			h9.8v-2.2c0-2.9-2.3-5.2-5.2-5.2H30c-2.9,0-5.2,2.3-5.2,5.2v5.5h2.9v2.2c-3.8,1.1-6.7,4.6-6.7,8.7v3.6v32.2v4.1
			c0,2.5,2.1,4.6,4.6,4.6h10.8v-3.3H25.6c-0.7,0-1.2-0.6-1.2-1.2v-4.1h12.1v-3.3H24.4V67.6h12.3c0.2-1.2,0.7-2.3,1.3-3.3H24.4V60.7z
			 M28.2,44.2c0-1,0.8-1.8,1.8-1.8h21.7c1,0,1.8,0.8,1.8,1.8v2.2H28.2V44.2z"/>
		<path fill="#CECECE" d="M41.5,69.7c0-0.2,0-0.3,0-0.5c0-0.6,0.2-1.2,0.4-1.7c0.7-1.6,2-2.9,3.7-3.3c0.5-0.1,1-0.2,1.6-0.2h10h0.1
			v-1.6c0-0.6,0.1-1.2,0.2-1.7h-0.3h-1.7h-7.4v-1.8h7h1.8h1.4c0.4-0.7,0.9-1.3,1.5-1.7c0.4-0.4,0.9-0.6,1.4-0.9
			c0.9-0.4,1.8-0.6,2.9-0.6h9.8v-2.2c0-2.9-2.3-5.2-5.2-5.2H58.5h-1.7h-9.8c-1.5,0-2.8,0.6-3.7,1.6c-0.5,0.5-0.9,1.1-1.1,1.8
			c-0.2,0.5-0.3,1.1-0.3,1.7v1.6v1.7v2.2h2.9V61c-1.1,0.3-2.2,0.9-3.1,1.6c-0.6,0.5-1.2,1-1.7,1.7c-0.7,1-1.3,2.1-1.6,3.3
			c-0.1,0.5-0.2,1.1-0.2,1.7c0,0.2,0,0.3,0,0.5v3.6v18.1v1.7v3.3v1.7v2v1.7v3.3v0.4v1.3v2.8c0,2.5,2.1,4.6,4.6,4.6h10.8v-3.3H42.7
			c-0.7,0-1.2-0.6-1.2-1.2v-2.8v-1.3h12.1v-0.4v-3H41.5v-0.4v-1.7v-2v-1.7v-3.3v-1.7V76.7h12.3c0.2-1.2,0.7-2.3,1.3-3.3H41.5V69.7z
			 M45.2,53.3c0-0.8,0.6-1.5,1.3-1.7c0.2,0,0.3-0.1,0.5-0.1h3.5h3.3h3.2h11.6c1,0,1.8,0.8,1.8,1.8v2.2h-9.7h-2h-5h-8.7v-0.5V53.3z"
			/>
		<path fill="#CECECE" d="M111.6,67.6c-0.3-1.2-0.9-2.4-1.6-3.3c-0.5-0.6-1-1.2-1.7-1.7c-0.9-0.7-2-1.3-3.1-1.6v-2.2h2.9v-2.2v-1.7
			v-1.6c0-0.6-0.1-1.2-0.3-1.7c-0.2-0.7-0.6-1.3-1.1-1.8c-0.9-1-2.3-1.6-3.7-1.6h-9.8h-1.7H81.2c-2.9,0-5.2,2.3-5.2,5.2v2.2h9.8
			c1,0,2,0.2,2.9,0.6c0.5,0.2,1,0.5,1.4,0.9c0.6,0.5,1.1,1.1,1.5,1.7h1.4h1.8h7v1.8h-7.4h-1.7h-0.3c0.1,0.6,0.2,1.1,0.2,1.7V64h0.1
			h10c0.6,0,1.1,0.1,1.6,0.2c1.7,0.5,3,1.7,3.7,3.3c0.2,0.5,0.3,1.1,0.4,1.7c0,0.2,0,0.3,0,0.5v3.6H94.9c0.6,1,1.1,2.2,1.3,3.3h12.3
			v14.7v1.7v3.3v1.7v2v1.7v0.4H96.4v3v0.4h12.1v1.3v2.8c0,0.7-0.6,1.2-1.2,1.2H96.4v3.3h10.8c2.5,0,4.6-2.1,4.6-4.6v-2.8v-1.3v-0.4
			v-3.3v-1.7v-2v-1.7v-3.3v-1.7V73.3v-3.6c0-0.2,0-0.3,0-0.5C111.8,68.7,111.7,68.1,111.6,67.6z M91,55.5h-2h-9.7v-2.2
			c0-1,0.8-1.8,1.8-1.8h11.6h3.2h3.3h3.5c0.2,0,0.3,0,0.5,0.1c0.8,0.2,1.3,0.9,1.3,1.7v1.6v0.5h-8.7H91z"/>
		<path fill="#FFFFFF" d="M73.7,62.3C73.7,62.3,73.7,62.3,73.7,62.3L73.7,62.3C73.7,62.3,73.7,62.3,73.7,62.3z"/>
		<path fill="#FFFFFF" d="M76.3,62.3C76.3,62.3,76.3,62.3,76.3,62.3L76.3,62.3C76.3,62.3,76.3,62.3,76.3,62.3z"/>
		<path fill="#FF7C24" d="M94.5,76.7c0-0.1,0-0.2-0.1-0.3c-0.3-1.1-0.8-2.2-1.5-3.1c0-0.1-0.1-0.1-0.1-0.2c-0.4-0.6-1-1.1-1.5-1.5
			c-0.6-0.4-1.2-0.8-1.8-1.1c-0.4-0.2-0.8-0.3-1.3-0.5v-2.2h1.3H91v-2.2V64v-1.6c0-0.6-0.1-1.2-0.3-1.7c-0.2-0.7-0.6-1.3-1.1-1.8
			c0,0,0,0,0,0h0c-0.4-0.4-0.9-0.8-1.4-1.1c-0.7-0.3-1.5-0.5-2.3-0.5h-9.8h-0.5h-1.2h-0.5h-9.8c-0.8,0-1.6,0.2-2.3,0.5
			c-0.5,0.3-1,0.6-1.4,1.1h0c0,0,0,0,0,0c-0.5,0.5-0.9,1.1-1.1,1.8c-0.2,0.5-0.3,1.1-0.3,1.7V64v1.7v2.2h1.6h1.3v2.2
			c-0.4,0.1-0.9,0.3-1.3,0.5c-0.7,0.3-1.3,0.7-1.8,1.1c-0.6,0.4-1.1,0.9-1.5,1.5c0,0.1-0.1,0.1-0.1,0.2c-0.7,0.9-1.2,1.9-1.5,3.1
			c0,0.1-0.1,0.2-0.1,0.3c-0.1,0.5-0.2,1.1-0.2,1.7c0,0.2,0,0.3,0,0.5v3.6v9v1.7v3.3v1.7v2v0.4v1.3v0.4v3v0.4v1.3v0.4v2v1.7v3.3v0.4
			v1.3v2.8c0,2.5,2.1,4.6,4.6,4.6h30.4c2.5,0,4.6-2.1,4.6-4.6v-2.8v-1.3v-0.4v-3.3v-1.7v-2v-0.4v-1.3v-0.4v-3v-0.4v-1.3v-0.4v-2
			v-1.7v-3.3v-1.7v-9v-3.6c0-0.2,0-0.3,0-0.5C94.7,77.8,94.6,77.2,94.5,76.7z M91.4,78.8v3.6h-2h-1.7h-8.4h-1.7h-0.3h-1.7h-1.3h-1.7
			h-0.3h-1.7h-8.4h-1.7h-2v-3.6c0-0.2,0-0.3,0-0.5c0-0.6,0.2-1.2,0.4-1.7c0.3-0.9,0.9-1.6,1.6-2.2c0.5-0.4,1.1-0.8,1.7-1
			c0.1-0.1,0.3-0.1,0.4-0.1c0.5-0.1,1-0.2,1.6-0.2h6.3h1.7h2h1.3h2h1.7h6.3c0.6,0,1.1,0.1,1.6,0.2c0.1,0,0.3,0.1,0.4,0.1
			c0.6,0.2,1.2,0.6,1.7,1c0.7,0.6,1.2,1.3,1.6,2.2c0.2,0.5,0.3,1.1,0.4,1.7C91.4,78.5,91.4,78.7,91.4,78.8z M77.5,67.9h0.3h1.4h5.6
			v1.8h-5.4h-1.7h-0.3h-1.7h-1.3h-1.7h-0.3h-1.7h-5.4v-1.8h5.6h1.4h0.3H74H76H77.5z M74.2,60.6h1.6H79h3.3h3.5c0.2,0,0.3,0,0.5,0.1
			c0.8,0.2,1.3,0.9,1.3,1.7V64v0.5H79h-1h-2H74h-2h-1h-8.7V64v-1.6c0-0.8,0.6-1.5,1.3-1.7c0.2,0,0.3-0.1,0.5-0.1h3.5H71H74.2z
			 M91.4,118.7c0,0.7-0.6,1.2-1.2,1.2H59.8c-0.7,0-1.2-0.6-1.2-1.2v-2.8v-1.3h14.5h3.8h14.5v1.3V118.7z M91.4,104.4v1.2v0.7v0.9v2
			v1.7v0.4H79.1h-1.8h-4.8h-1.8H58.6v-0.4v-1.7v-2v-0.9v-0.7v-1.2v-2.2v-1.7V85.8h2h1.7h8.4h1.7h0.3h1.7h1.3h1.7h0.3h1.7h8.4h1.7h2
			v14.7v1.7V104.4z"/>
	</g>
	<g>
		<polygon fill="#FFFFFF" points="75.5,41 66.3,31.9 68.7,29.5 75.5,36.3 87.9,23.9 90.2,26.3 		"/>
	</g>
</g>
</svg>
