<?xml version="1.0" encoding="utf-8"?>
<!-- Generator: Adobe Illustrator 22.0.1, SVG Export Plug-In . SVG Version: 6.00 Build 0)  -->
<svg version="1.1" id="레이어_1" xmlns="http://www.w3.org/2000/svg" xmlns:xlink="http://www.w3.org/1999/xlink" x="0px"
	 y="0px" viewBox="0 0 150 150" enable-background="new 0 0 150 150" xml:space="preserve">
<g>
	<path fill="#FFFFFF" d="M106,25.5H44c-4.9,0-8.8,4-8.8,8.8v14.8v3v21c0,13.8,10.4,25.1,23.7,26.7v4h5.8v6.1H66v14.5h5V110h1.3v-6.1
		h6.4v4.1H80v4.7c0,3.9,3.2,7.1,7.1,7.1h6.7v-3h-6.7c-2.3,0-4.1-1.9-4.1-4.1V108h1.5v-4.1h6.7v-4c13.3-1.6,23.6-12.9,23.6-26.7V58.5
		v-3V34.3C114.8,29.5,110.9,25.5,106,25.5z M98.9,52.2c3.5,0,5.1,1.3,7,2.9c1.1,0.9,2.3,1.8,3.9,2.5v15.6C109.8,85.2,100,95,88,95
		H62C50,95,40.2,85.2,40.2,73.2V53.5c0.7,0.4,1.4,1,2,1.5c2.1,1.6,4.4,3.5,8.9,3.5c1.4,0,2.5-0.2,3.5-0.5v-3.1
		c-1,0.4-2.1,0.6-3.5,0.6c-3.5,0-5.1-1.3-7-2.9c-1.1-0.9-2.3-1.8-3.9-2.5V34.3c0-2.1,1.7-3.8,3.8-3.8h62c2.1,0,3.8,1.7,3.8,3.8v19.9
		c-0.7-0.4-1.4-1-2-1.5c-2.1-1.6-4.4-3.5-8.9-3.5c-1.3,0-2.4,0.2-3.4,0.4v3.1C96.4,52.4,97.5,52.2,98.9,52.2z"/>
	<path fill="#FF7C24" d="M89.9,39.2H60.2c-1.4,0-2.6,1.2-2.6,2.6v42c0,1.4,1.2,2.6,2.6,2.6h29.7c1.4,0,2.6-1.2,2.6-2.6v-42
		C92.5,40.3,91.3,39.2,89.9,39.2z"/>
</g>
</svg>
