<?xml version="1.0" encoding="utf-8"?>
<!-- Generator: Adobe Illustrator 22.0.1, SVG Export Plug-In . SVG Version: 6.00 Build 0)  -->
<svg version="1.1" id="레이어_1" xmlns="http://www.w3.org/2000/svg" xmlns:xlink="http://www.w3.org/1999/xlink" x="0px"
	 y="0px" viewBox="0 0 40.1 40" enable-background="new 0 0 40.1 40" xml:space="preserve">
<g>
	<g>
		<path fill="#FFFFFF" d="M32.8,22.3l6.5,17.4h-3.2l-1.7-4.8h-6.6l-1.7,4.8h-3.2l6.4-17.4H32.8z M31.1,24.8l-0.5,1.7l-2.2,6.2h5.3
			l-2.2-6.2L31.1,24.8z"/>
	</g>
	<g>
		<path fill="#FFFFFF" d="M2.1,12.4c1.3-0.6,2.5-1.2,3.4-1.9c1-0.7,1.8-1.4,2.4-2.2s1.1-1.6,1.5-2.4c0.3-0.8,0.6-1.7,0.7-2.5
			C8.6,3.5,7,3.5,5.4,3.5H3.2v-2h3.4c1,0,2,0,3.1,0c1,0,2.2,0,3.4,0c-0.1,1.4-0.3,2.7-0.7,3.9s-0.9,2.3-1.6,3.4
			c-0.7,1.1-1.6,2-2.7,2.9c-1.1,0.9-2.4,1.7-4,2.5L2.1,12.4z M20.9,8.6h-3.1v9.1h-2.6V0h2.6v6.6h3.1V8.6z"/>
	</g>
	<g>
		<polygon fill="#FFFFFF" points="1.5,40 0,38.6 38.4,4 40,5.4 		"/>
	</g>
</g>
</svg>
