<?xml version="1.0" encoding="utf-8"?>
<!-- Generator: Adobe Illustrator 22.0.1, SVG Export Plug-In . SVG Version: 6.00 Build 0)  -->
<svg version="1.1" id="레이어_1" xmlns="http://www.w3.org/2000/svg" xmlns:xlink="http://www.w3.org/1999/xlink" x="0px"
	 y="0px" viewBox="0 0 1031.6 731.4" enable-background="new 0 0 1031.6 731.4" xml:space="preserve">
<path fill="#5EC4DB" d="M159.2,640.9l0.3-0.2l0.1,0l-0.3,0.5l0.1,0.1l26.5,90l-26.3-89.7l0.1,0l64.6,89.7h0.1l-64.6-89.6l0.1-0.2
	l-0.1-0.1L1031.6,467L159.5,641.6l-0.1-0.1l872.2-174.8L159.6,641.4l0.4-0.6l-0.1-0.2l-0.4,0.1l0.4-1.1l-0.1-0.2l0.2-0.2l10.9-32.3
	l-0.1-0.2L454.4,2h-0.1L170.8,606.5l-4.1,2.1l-6.1,1.5l-0.5-0.3l-0.3-0.9l-0.1-0.1l0.7-0.6l0.2-0.1l2.4-6.1l868.6-171.4L163.5,601.9
	l10.3-3.7l6.6-2.3c0,0,0.2,0.1,0.2,0.1l851.1-302.5l-851.3,302l-0.1,0.2l-6.5,2.3l-0.1-0.1l858-420.5L172.8,598.4l0-0.1l858.9-518.2
	l-858.8,518l0-0.2l-9.2,2.9l8.3-3.5l-8.5,3.4l0.1-0.2l8.2-3.2l1-0.8l1,0l857.8-308.6L183.8,592.3l-0.3,0.2l-1,0.2l-2,1.1l-0.3,0.1
	l2.1-1.2l-0.1,0l-2.2,1.3l-6.1,2.2l-0.2,0l0.2-0.6l4.8-4l0-0.1l-4.5,3.8l-0.1,0l-0.2,0.3l-0.2,0.4l-0.7,0.1l0-0.1l2.7-2.2l0.6-1.3
	l0.2-0.3l1.1-0.3l854.2-403L177.4,591.5l-0.1,0.2l-0.4,0.1l-0.2,0l-0.3,0.1l-0.7-3.8l0.1-0.3l726-586L175.5,587.8l0-1.7l-1.3-0.6
	l7.9-7.5l1,1.1l0.4,0.9l146.4,151.4L182.1,577.9l0.1-0.1l546.4,153.5L182.3,577.6v-0.1l0.1-0.1c0,0,0-0.2,0-0.2l0.5-0.9h0.2l0.5-0.5
	l848.1,17V592l-848.4-16.4l0.2-0.5h0.2l0.3-0.5l0-0.1l847.7-251.2L184.3,574l2.9-4.1l-0.1-0.6l29.8-47.5l814.7-437.1v-0.2
	L216.9,521.7l30.2-143.2L857.6,1.9L265.4,367.1L23.1,1.9l242.1,365.4l-18.1,11L326.6,1.9h-0.8l-77,367.2L151.2,1.9l97.6,367.5
	l-17.5,83.8L0,225.9l231.2,227.6l-13.6,64.8l-9.5-7.5L747.7,1.9L207.9,510.6L0,347l217.5,171.4l-0.7,3.5L187,569.2l0.1,0.6l-3.1,4.4
	l-0.2,0.1l0.3-0.6l0-0.4L345.1,1.8l-0.3,0.1L184,573.4l0,0.4l-1.8,3.5l-0.1,0l1.2-7.8l-0.1,0l-1.2,7.9l0,0.4l-0.1,0.1l-0.1-0.4
	L263.7,1.9l-82,576.3l-7.5,7.1l-0.3-11.5L378.9,1.9l-205.6,572l0.3,11.3l0.3,0.3l1.4,0.7l0,1.7l0.8,4.3l-0.1,0.3l-0.1,0l-0.5,1.4
	l-3.9,3.2l-0.1-0.1L364.7,1.9L171.2,597.3l-2.5,0.9l0.6-21.8L491.8,1.9L169.3,576.3L78.3,1.9l90.9,574.5l-0.6,21.9l-0.5,0.2l0-2.5
	l-2.2-2.1l-4.5-13.3l2.6-28.5l1.6-3.9l866-171.1L165.7,548.2l1.7-4.1l2.8-1.5l62.6,11l73,177.8l-72.9-178.2l0.4-0.2l7.7,1.3
	l-146.7,177l146.8-176.8h1l0.6,0.3L7.2,731.3l235.4-176l158.4,176L242.8,555.2l0.4-0.2l788.4,139.6L243.6,554.9l-0.3-0.3L785.7,1.9
	L242.9,554.5L75,1.9l167.6,552.6l-8.8-1.6l-0.5-0.3L1031.6,194L233,552.5l-75-550.6l74.9,550.9l-0.3,0.3L0,251l232.1,302.2l-0.5-0.1
	l-62-11l0.2-2.1l0.6-0.6L1031.6,300L170.3,539.3l0.2-0.9l3.3-2l0.4-2.1l1.3-0.2l259.4,197.4L175.9,534.1l0.3-1.9l-3.2-22.1l2.2-3.4
	L1031.7,384L175.3,506.2L154.9,2l19.3,486L0,277.1l174.1,211.1l0.8,18.5l-1.9,3.1l-0.8-5.5L69.4,2l101.8,501.8l0.5,0.7l4.2,27.9
	l-0.5,1.1L18.3,0.5L175.2,534l-1,0.2l-3.8-3L341.5,2L170.8,528.8l0.1,0.3l-0.6,1.8l-2.1-0.3L0,343.9l168.3,186.9l1.7,0.2l4.1,3.2
	c0,0-0.4,2.1-0.4,2.1l-2.5,1.5l-0.1-0.1l-0.8,0.5l-1.1,0l-0.4,1.4l-26.7,23.3l-36.7,32.2L0,574.4l105.3,20.7L0,687.5v0.3
	l168.9-148.1l0.4-1.3h1.1l-0.2,1l0.1,0.1l-0.5,0.6l-0.2,2.2l0.3,0.4l-0.7,0.4l-0.8-0.1l-0.9,0.5l-1.4-6.1l-1.1-22.7L371.5,2
	L165,514.4l-3.9-21.5L249.9,2l-89,490.9L0,350.3l161,142.9l3.9,21.4l1,20.1L0,183L165.9,535l-0.9-0.5L0,291.5l164.9,243l0.2,0
	l0.8,0.5L0,639.9v0.1l165.9-104.8l0.1,2.2l1.4,6.2l-3.2,8l-4.1-20l0-19.1l-2.2-6.4l0.2-4.6L483.3,2L156.8,502.4l0.6-8.2l109.2-57.3
	l765.1-160.1L267.5,436.6l100.2-53l664-218.7L368.1,383.3l663.5-351L277.2,431L735.1,2L276.3,431.4l-120.8,63.8l0-0.2L343,1.9
	L153.5,499.7l-0.7-1.7L267,1.9L153,496.3l-0.5,0.2L0,432.2l152.8,64.7l-0.2,0.9L0,497.9l152.5,0.2l1,2.4L0,523.3l153.2-22.6l0.3,0.6
	L0,553.1l153.7-51.7l0.2,0.1l2.2-6.5l1-0.5l0.1,0.1l0.1,0.5l-0.6,7.6l-0.1,0.1L2.9,731.4l153.9-228.5l0.3,0l0.9-1.4l-0.2,3.7
	L0,500.1l157.4,5.3l0.3,0.3L0,592.9L157.7,506l0.7,2.4l-0.1,0.3l0.8,1.3l-159,33.9l158.9-33.7l0.3,0.1l0.5,1.4L0,610.7v0.2
	l159.6-98.9l0.3,0.5l0,18.9L0,470.4l159.6,61.3L0,626.8l159.9-95l3.8,18.5l-0.3,1l0.5,0.6l-2.6,28.5L0,425l161.1,155.2l4.7,13.9
	l2.2,2v2.5l-4.4,1.7l-3,7.8l-0.8,0.6L0,442.5l159.7,166.3l0.4,0.9L0,551.2l160.1,58.6l0.4,0.3l-0.2,0.2L0,573.3l160.3,37.1l-0.1,0.1
	L0,604.5l161.2,6.1l0.2,0.2l-0.7,0.3l0,0.1L0,621.2l160.5-9.8l0.3,0.2L0,633.3l161.3-21.6l0.1,0.1L0,640.4L160.4,612l0.1,0.2
	l-3.3,1.5l0.1,0.1l3.1-1.3l0.1,0.2l-0.7,0.3l-0.1,0.2l-9.5,4.2L0,517.1l150,100.4l-7.9,6L0,372.3l142,251.2L0,731.3l150.1-113.8
	l8.5-3.8l0.2,0.1l1-0.4L8.4,731.3l151.9-118l0.6,0.5L70.5,731.3l90.7-117.8l0.3,0.1l-40.3,117.7L161,615.2l97.3,116.2L161,615.1
	l0.5-1.6l0-0.2l0.1-0.1l205,118.1l-205-118.2l-0.2-0.2l210.2,118.3L161.7,613l0-0.1l218,118.4h0.4L161.8,612.8l869.8,109.3
	L161.5,612.7l-0.1-0.1l870.2-141.9L161.7,612.6l-0.2-0.1l-0.2,0.1l-0.8,0l-0.1-0.2l0.3-0.1l0.1-0.1l0.3,0l0-0.2l0.3-0.1l0.3,0
	l112.4,119.5L162.5,612.1l-0.3-0.1l-0.4-0.6l0.1-0.2l0.9-0.2l0.2,0.4l725.3,120L163.1,611.1l0.1-0.1l868.5,100.2L163.1,610.9
	l-0.1-0.1l-1-0.1l-0.5,0.1l-0.2-0.2l870.3,77.4l-871.2-77.6l0.2-0.2l6.2-1.6l4-2.1L61.2,731.3h0.1l109.2-124.4l0.2,0.1l-3.1,8.9
	l-1.7,4.2l-1.3-1.3l0.2-0.3l-1.1-2.6l-0.1,0.2L0,639.8l163.4-23.7L0,657.7l163.5-41.5l0.3,0.2L18.4,731.3l145.4-115l0.9,2.1
	l-0.2,0.3v0.2L88.1,731.3l76.6-112.5l1.3,1.3l0.2,0l-0.1,0.3L0,661.2l166.1-40.6l0,0.2l-4.3,12.8l-2.5,6.7l-2.8,2.9l0,0.1l2.8-2.8
	v0.1l-45.8,50.2L46,731.3l67.6-40.6l-15.7,40.6l15.8-40.6l45.7-50.2l0.2-0.1l-0.1,0.2l-0.2,0.2h-0.1c0,0-51.3,90.5-51.3,90.5
	C107.9,731.3,159.2,641,159.2,640.9l-12.6,54.2l-15.4,33.4L0,512l131.9,217.9l-0.2,0L0,599.5L131.7,730l-0.1,0L0,651.8l130.9,78
	l0.3,0l0.4,0.2l0.6,1.2l-0.5-1.3h0.1l0.9,1.3h0.1l-0.7-1.4l-0.4-0.2l-0.5-0.8l0.1-0.4l-0.1-0.1l15.2-33.2l12.6,18.5l-13.6,17.6
	l13.6-17.5l12,17.5l-22.2-32.4l162.1,32.4l-162-32.5l-0.1-0.1l-0.2-0.1l-2.2-3.3L159.2,640.9L159.2,640.9z"/>
</svg>
