<?xml version="1.0" encoding="utf-8"?>
<!-- Generator: Adobe Illustrator 22.0.1, SVG Export Plug-In . SVG Version: 6.00 Build 0)  -->
<svg version="1.1" id="레이어_1" xmlns="http://www.w3.org/2000/svg" xmlns:xlink="http://www.w3.org/1999/xlink" x="0px"
	 y="0px" viewBox="0 0 979.1 602.7" enable-background="new 0 0 979.1 602.7" xml:space="preserve">
<path fill="#5EC4DB" d="M356.4,0l-0.5,0.4l-34.7,34.2c0,0-0.1,0-0.1,0.1H312l-5.1-5.1l-0.3-0.3h-16.8l-0.3,0.3l-6.7,6.7h-14.7
	l-0.3,0.3l-5.4,5.4c-0.9-0.9-2.2-1.4-3.5-1.4c-2.9,0-5.2,2.4-5.2,5.4c0,3,2.3,5.4,5.2,5.4s5.2-2.4,5.2-5.4c0-0.8-0.2-1.5-0.4-2.2
	l5.4-5.4h14.6l0.3-0.3l6.6-6.7h15l5.1,5.1l0.3,0.3h9.8c0.5,0.7,1.6,0.9,2.3,0.3c0.1-0.1,0.2-0.2,0.3-0.3l34.3-33.7h137.8l66.8,66.8
	v11L548,95.4h-8.3c-0.7-2.1-2.6-3.6-4.9-3.6c-2.9,0-5.2,2.4-5.2,5.4c0,3,2.3,5.4,5.2,5.4c2.4,0,4.4-1.7,5-3.9h9.5l0.5-0.5l15.3-15.3
	l0.5-0.5V68.7l-0.5-0.5L497.4,0.5L496.9,0L356.4,0L356.4,0z M240.9,2.6c-2.9,0-5.2,2.4-5.2,5.4c0,2.3,1.5,4.3,3.5,5.1v39.5l0.3,0.3
	l8.7,8.7v7.7l0.3,0.3l12.9,12.8l0.3,0.3h16.5l6,6l0.3,0.3h53.1l0.3-0.3l38.3-38.3h41.1l55.5,55.5l0.3,0.3h76.1l0.3-0.3l21.7-21.7
	l0.3-0.3V66.7l4.9-4.9h15l5.8,5.8c-0.5,0.8-0.8,1.7-0.8,2.7c0,3,2.3,5.4,5.2,5.4c2.9,0,5.2-2.4,5.2-5.4c0-3-2.3-5.4-5.2-5.4
	c-1.1,0-2.2,0.4-3,1l-6.1-6.1l-0.3-0.3h-16.8l-0.3,0.3l-5.5,5.5l-0.3,0.3v17.4l-21.1,21.1h-74.2l-55.5-55.5l-0.3-0.3h-42.9l-0.3,0.3
	l-38.2,38.2h-51.3l-5.9-6l-0.3-0.3h-16.5l-12.2-12.2v-7.6l-0.3-0.3l-8.8-8.7V13.3c2.7-0.2,4.8-2.5,4.8-5.4
	C246.1,5,243.8,2.6,240.9,2.6L240.9,2.6z M360.1,7.2l-0.5,0.5l-34.2,34.2h-15l-7.1-7.1l-0.5-0.5h-10.1l-0.5,0.5l-9.8,9.8
	c-0.7-2.1-2.6-3.6-4.9-3.6c-2.9,0-5.2,2.4-5.2,5.4c0,3,2.3,5.4,5.2,5.4c2,0,3.7-1.2,4.6-2.9l0.3,0.3L294,37.7h7.5l7.1,7.1l0.5,0.5
	h17.7l0.5-0.5l34.2-34.2h129.1l60.3,60.3v1.6c-1.9,0.8-3.2,2.7-3.2,5c0,3,2.4,5.4,5.3,5.4c2.9,0,5.2-2.4,5.2-5.4
	c0-2.5-1.7-4.6-4-5.2v-2.7l-0.5-0.5L492.3,7.7l-0.5-0.5L360.1,7.2L360.1,7.2z M361.2,14.9l-0.5,0.5l-33.2,33.3h-22.4l-2.6-2.7
	c-0.4-2.6-2.5-4.6-5.1-4.6c-2.9,0-5.2,2.4-5.2,5.4c0,3,2.3,5.4,5.2,5.4c1.8,0,3.4-0.9,4.3-2.4l1.6,1.6l0.5,0.5h25.2l0.5-0.5
	l33.2-33.2h125.5L540,70.1v8.4l-5.5,5.5h-47.7l-3.1-3.1c0.5-0.8,0.8-1.7,0.8-2.7c0-3-2.3-5.4-5.2-5.4c-2.9,0-5.2,2.4-5.2,5.4
	s2.3,5.4,5.2,5.4c0.7,0,1.4-0.2,2-0.4h0l3.7,3.7l0.5,0.5H536l0.5-0.5l6.4-6.5l0.5-0.5V68.7l-0.5-0.5L490,15.4l-0.5-0.5L361.2,14.9
	L361.2,14.9z M367.2,28.6l-0.5,0.5l-35.4,35.4h-28.6c-0.5-2.5-2.6-4.3-5.1-4.3c-2.9,0-5.2,2.5-5.2,5.4c0,3,2.3,5.4,5.2,5.4
	c2.1,0,3.9-1.3,4.7-3.2h30.3l0.5-0.5l35.4-35.4H465l5.1,5.7L469.7,69l-5.6,4c-0.4-0.1-0.9-0.2-1.3-0.2c-2.9,0-5.3,2.4-5.3,5.4
	c0,3,2.4,5.4,5.3,5.4c2.9,0,5.2-2.4,5.2-5.4c0-1.2-0.4-2.3-1-3.2l5.4-3.9l0.7-0.5v-0.8l0.4-32.9l0-0.6l-0.4-0.5l-6-6.7l-0.5-0.5
	L367.2,28.6L367.2,28.6z M369.7,35.1l-0.5,0.5l-36.7,36.7h-39.3l-9.2-9.3l-0.2,0.2c-0.8-1.8-2.6-3.1-4.7-3.1c-2.9,0-5.2,2.5-5.2,5.4
	c0,3,2.4,5.4,5.2,5.4c2.2,0,4-1.4,4.8-3.3l7.5,7.5l0.5,0.5h42.1l0.5-0.5L371,38.4h86c-0.8,1-1.3,2.2-1.3,3.6c0,3,2.3,5.4,5.2,5.4
	c2.9,0,5.2-2.4,5.2-5.4c0-3-2.3-5.4-5.2-5.4v-1.5H369.7L369.7,35.1z M373.6,42.2l-0.5,0.5l-37.9,37.9h-46.5l-6.5-6.5l-0.5-0.5h-12.5
	l-5.5-5.5c0.2-0.6,0.3-1.2,0.3-1.9c0-3-2.3-5.4-5.2-5.4c-2.9,0-5.2,2.4-5.2,5.4c0,3,2.3,5.4,5.2,5.4c1,0,2-0.3,2.8-0.9l5.7,5.7
	l0.5,0.5h12.5l6.5,6.5l0.5,0.5h49.3l0.5-0.5L375,45.5h73.9l6.9,6.9c-0.5,0.8-0.8,1.9-0.8,3c0,3,2.3,5.4,5.2,5.4s5.3-2.4,5.3-5.4
	c0-3-2.4-5.4-5.3-5.4c-0.6,0-1.2,0.1-1.8,0.3l-7.7-7.7l-0.5-0.5L373.6,42.2L373.6,42.2z M382.9,53.8c-2.9,0-5.2,2.4-5.2,5.4
	s2.3,5.4,5.2,5.4c1.3,0,2.5-0.5,3.4-1.3l5.9,5.9l0.3,0.3H416l43,43l0.3,0.3h90.9l0.3-0.3l31.1-31.1h29.9l0.3-0.3l1.2-1.2
	c0.6,0.2,1.2,0.3,1.8,0.3c2.9,0,5.2-2.4,5.2-5.4c0-3-2.3-5.4-5.2-5.4s-5.3,2.4-5.3,5.4c0,1.5,0.6,2.8,1.5,3.8l-0.5,0.5h-29.9
	l-0.3,0.3l-31,31h-89.2l-43-43l-0.3-0.3h-23.5l-5.8-5.8c0.3-0.7,0.5-1.5,0.5-2.3C388.1,56.2,385.7,53.8,382.9,53.8L382.9,53.8z
	 M397.2,54.1c-2.6,0.3-4.7,2.6-4.7,5.4c0,3,2.4,5.4,5.3,5.4c2.9,0,5.2-2.4,5.2-5.4s-2.3-5.4-5.2-5.4
	C397.6,54.1,397.4,54.1,397.2,54.1z M631.5,54.1c-2.6,0.3-4.7,2.6-4.7,5.4c0,0.9,0.3,1.7,0.7,2.5l-3.3,3.3l-0.3,0.3v13.1l-5.5,5.5
	h-35.7l-0.3,0.3l-30.2,30.2H439.3l-40.8-40.8l-0.3-0.3h-8.9c-0.7-2.2-2.6-3.8-5-3.8c-2.9,0-5.2,2.4-5.2,5.4c0,3,2.3,5.4,5.2,5.4
	c2.7,0,4.9-2.1,5.2-4.8h7.8l40.8,40.8l0.3,0.3H553l0.3-0.3l30.3-30.2h35.6l0.3-0.3l6.2-6.2l0.3-0.3V66.5l2.8-2.8
	c0.9,0.7,2,1.2,3.2,1.2c2.9,0,5.2-2.4,5.2-5.4c0-3-2.3-5.4-5.2-5.4C631.8,54.1,631.6,54.1,631.5,54.1L631.5,54.1z M646.2,58.2
	c-2.9,0-5.2,2.4-5.2,5.4c0,1.2,0.4,2.4,1.1,3.3l-21.7,21.7h-34.2l-0.3,0.3l-31,31H437.4l-37.3-37.3l-0.3-0.3h-32.8l-0.3,0.3l-32,32
	h-83.9l-5.2-5.3c0.2-0.5,0.3-1.1,0.3-1.7c0-3-2.3-5.4-5.2-5.4c-0.2,0-0.3,0-0.5,0c-2.6,0.3-4.7,2.6-4.7,5.4c0,3,2.3,5.4,5.2,5.4
	c1.5,0,2.9-0.7,3.8-1.7l5.1,5.1l0.3,0.3h85.7l0.3-0.3l32-32h31.1l37.3,37.3l0.3,0.3h119.2l0.3-0.3l31-31h34.2l0.3-0.3l22.2-22.2
	c0.7,0.4,1.6,0.7,2.5,0.7c2.9,0,5.2-2.4,5.2-5.4C651.4,60.6,649.1,58.2,646.2,58.2L646.2,58.2z M451.9,61.2c-2.9,0-5.2,2.4-5.2,5.4
	c0,3,2.3,5.4,5.2,5.4c2.9,0,5.2-2.4,5.2-5.4C457.1,63.6,454.8,61.2,451.9,61.2z M580.7,65.3c-2.6,0.3-4.7,2.6-4.7,5.4
	c0,3,2.4,5.4,5.2,5.4c2.9,0,5.2-2.4,5.2-5.4c0-3-2.3-5.4-5.2-5.4C581,65.3,580.8,65.3,580.7,65.3L580.7,65.3z M370.5,67.2
	c-2.9,0-5.2,2.4-5.2,5.4c0,0.7,0.1,1.4,0.4,2L331,109.2h-77.4l-2.2-2.2v-6.5l-0.6-0.3l-4.6-2.6l-0.3-0.2h-10.8l-0.3,0.3l-4.3,4.3
	l-0.3,0.3v12.5l-14.3,14.4l-0.3,0.3v58l0.3,0.3l28.2,28.2l0.3,0.3h8l8,8.3l0.3,0.3h13.2l2.3,1.9l0.3,0.3h17.9L423,355.8v101.1
	l0.3,0.3l8.7,8.7v75.3l0.3,0.3l35.2,35.2v17.8l0.3,0.3l7.7,7.7h3.1l-8.9-8.9v-17.9l-0.3-0.3l-35.2-35.2V465l-0.3-0.3l-8.8-8.8V355
	l-0.3-0.3L295.6,225.2l-0.3-0.3h-18l-2.2-1.9l-0.3-0.3h-13.1l-8-8.3l-0.3-0.3h-8l-27.5-27.5v-56.1l14.3-14.3l0.3-0.3v-12.6l3.7-3.6
	h9.3l3.8,2.2v6.1l0.3,0.3l2.9,2.9l0.3,0.3H332l0.3-0.3l34.6-34.6c0.9,0.9,2.2,1.5,3.6,1.5c2.9,0,5.2-2.4,5.2-5.4
	C375.7,69.6,373.4,67.2,370.5,67.2L370.5,67.2z M509.3,68.3c-2.6,0.3-4.7,2.6-4.7,5.4c0,3,2.3,5.4,5.2,5.4c2.9,0,5.2-2.4,5.2-5.4
	s-2.3-5.4-5.2-5.4C509.7,68.3,509.5,68.3,509.3,68.3z M232.7,92.4l-0.3,0.3l-7,7l-0.3,0.3v13.3L210.3,128l-0.3,0.3l0,0.5l0.9,59.5
	l0,0.4l0.3,0.3l30.6,30.9l0.3,0.3h0.4l5.8,0.1l7.7,7.7l0.3,0.3h16.2l2.4,2.7l0.3,0.3h18.2l126.2,125.9V459l0.3,0.3l8.3,8.3V543
	l0.3,0.3l34.9,35v16.5l0.3,0.3l7.6,7.6h3.1l-8.9-8.9v-16.5l-0.3-0.3l-35-34.9v-75.3l-0.3-0.3l-8.4-8.3V356.6l-0.3-0.3L294.9,229.7
	l-0.3-0.3h-18.2l-2.5-2.7l-0.3-0.3h-16.2l-7.7-7.7l-0.3-0.3l-0.5,0l-5.9-0.1l-30-30.3l-0.9-58.6l14.7-14.8l0.3-0.3v-13.3l6.4-6.4
	h17.3l5.1,5.1c-0.8,0.9-1.3,2.2-1.3,3.5c0,3,2.3,5.4,5.2,5.4c2.9,0,5.3-2.4,5.3-5.4c0-3-2.4-5.4-5.3-5.4c-0.8,0-1.5,0.1-2.2,0.5
	l-5.6-5.6l-0.3-0.3L232.7,92.4L232.7,92.4z M375,93c-2.9,0-5.2,2.4-5.2,5.4c0,1.1,0.3,2.1,0.8,2.9l-17.8,17.8H252.2l-0.3,0.3
	l-26.1,26.1l-0.3,0.3v36l0.3,0.3l23.2,23.2l0.3,0.3h5.1l10.1,10.1l0.3,0.3h13.6l2.5,2.5l0.3,0.3h18.1l133.7,133.7v100l0.3,0.3
	l8.2,8.2v75.9l0.3,0.3l28.9,28.9l0.3,0.3h29l3.8,3.8v32l0.3,0.3l0.1,0.1h3.1l-1.3-1.3v-32l-0.3-0.3l-4.5-4.4l-0.3-0.3h-29.1
	l-28.2-28.2v-75.9l-0.3-0.3l-8.2-8.2v-100l-0.3-0.3L300.6,217l-0.3-0.3h-18.2l-2.4-2.5l-0.3-0.3h-13.6l-10.1-10.1l-0.3-0.3h-5.2
	l-22.5-22.5v-34.2l25.4-25.5h100.6l0.3-0.3l18-18.1h0c0.8,0.6,1.8,0.9,2.9,0.9c2.9,0,5.2-2.4,5.2-5.4S377.9,93,375,93L375,93z
	 M402.3,94.5c-2.9,0-5.2,2.4-5.2,5.4c0,3,2.3,5.4,5.2,5.4s5.2-2.4,5.2-5.4C407.5,96.9,405.2,94.5,402.3,94.5z M401.5,114.3
	c-2.9,0-5.2,2.4-5.2,5.4c0,3,2.3,5.4,5.2,5.4s5.2-2.4,5.2-5.4C406.7,116.7,404.4,114.3,401.5,114.3z M232.3,123.2
	c-2.9,0-5.2,2.4-5.2,5.4c0,1.3,0.4,2.4,1.2,3.4l-8.4,8.4l-0.3,0.3v43.6l0.3,0.3l26.1,26l0.3,0.3h7.9l8.8,8.8l0.3,0.3h12.9l2.7,2.7
	l0.3,0.3h17.5L427.5,354v101.1l0.3,0.3l8.4,8.5v75.3l0.3,0.3l30.5,30.4l0.3,0.3h30.8l2.3,2.3v30h2.2v-31l-0.3-0.3l-3-3l-0.3-0.3
	h-30.7l-29.8-29.8V463l-0.3-0.3l-8.5-8.4v-101l-0.3-0.3L297.9,221.3l-0.3-0.3h-17.4l-2.7-2.8l-0.3-0.3h-12.9l-8.8-8.8l-0.3-0.3h-7.8
	l-25.5-25.4v-41.8l8.2-8.1c0.7,0.4,1.5,0.6,2.4,0.6c2.9,0,5.2-2.4,5.2-5.4S235.2,123.2,232.3,123.2L232.3,123.2z M657.1,125.7
	c-3.1,0-5.5,2.5-5.5,5.6c0,0.9,0.2,1.7,0.6,2.4l-5.6,5.6l-0.3,0.3v7.8l-8.1,8.1h-10.5l-0.3,0.3l-32.7,32.8l-0.3,0.3v70.9l-8.8,8.9
	l-0.3,0.3v18.6l0.3,0.3l9.2,9.2l0.3,0.3h24.8l55.7,55.6v47l0.3,0.3l6.3,6.3l0.3,0.3h67.2l6.8,6.8l0.3,0.3h17.5l25.9,25.9l0.3,0.3
	h126l23.2,23.2v120.8l-9.9,9.9l-0.3,0.3v8.4h2.2v-7.5l9.9-9.9l0.3-0.3V462.4l-0.3-0.3l-23.8-23.8l-0.3-0.3h-126L775.5,412l-0.3-0.3
	h-17.5l-6.8-6.8l-0.3-0.3h-67.2l-5.6-5.6v-47l-0.3-0.3l-56.3-56.3l-0.3-0.3h-24.8l-8.6-8.6v-16.8l8.9-8.8l0.3-0.3v-70.8l32.1-32.1
	h10.5l0.3-0.3l8.7-8.7l0.3-0.3v-7.8l5-5c1,0.9,2.2,1.4,3.6,1.4c3.1,0,5.6-2.5,5.6-5.5S660.1,125.7,657.1,125.7L657.1,125.7z
	 M627.4,125.9c-2.5,0-4.6,1.6-5.3,3.9H600l-0.3,0.3L577,152.8l-0.3,0.3V177L559,194.7l-0.3,0.3v94.2l0.3,0.3l27.1,27.1l0.3,0.3h22.4
	l46.7,46.7v22.8l-8.2,8.2l-0.3,0.3v24.6l0.3,0.3l6.8,6.8l0.3,0.3h19.1l17.6,17.5l0.3,0.3h92l10.9,10.9l0.3,0.3h54.6l33.4,33.4v83.2
	l0.3,0.3l18.4,18.4v11.1h2.2v-12.1l-0.3-0.3L884.9,572v-83.2l-0.3-0.3l-34.1-34.1l-0.3-0.3h-54.5l-10.9-10.9l-0.3-0.3h-92
	l-17.6-17.6l-0.3-0.3h-19.1l-6.2-6.2V396l8.2-8.2l0.3-0.3v-24.6l-0.3-0.3l-47.4-47.4l-0.3-0.3h-22.4l-26.5-26.5V196l17.7-17.7
	l0.3-0.3v-23.8l22-22h20.9c0.3,2.8,2.7,5,5.5,5c3.1,0,5.5-2.5,5.5-5.6S630.5,125.9,627.4,125.9L627.4,125.9z M257.5,128.6l-0.3,0.3
	l-12.8,12.8l-0.3,0.3V166l-2.6,4.6l-0.1,0.2v21.8l0.3,0.3l9.4,9.4l0.3,0.3h6.5l7.9,7.9l0.3,0.3h14.8l4.6,2.6l0.2,0.1h13.9
	l136.7,136.7v100.1l0.3,0.3l9,8.9v74.6l0.3,0.3l26.9,27l0.3,0.3h30.2l5.3,5.3v31.7l0.3,0.3l3.5,3.5h3.1l-4.7-4.7v-31.8l-0.3-0.3
	l-5.9-6l-0.3-0.3h-30.2l-26.3-26.3v-74.6l-0.3-0.3l-9-9V349.4l-0.3-0.3L300.8,211.7l-0.3-0.3h-14.2l-4.6-2.6l-0.2-0.2H267l-7.9-7.9
	l-0.3-0.3h-6.5l-8.8-8.8v-20.2l2.6-4.5l0.2-0.3v-23.7l12.1-12.1h65.2l9,9c-0.5,0.9-0.9,1.9-0.9,3c0,3,2.3,5.4,5.2,5.4
	s5.2-2.4,5.2-5.4s-2.3-5.4-5.2-5.4c-1,0-2,0.3-2.8,0.9l-9.4-9.4l-0.3-0.3L257.5,128.6L257.5,128.6z M268.9,132.4l-0.3,0.3l-6.5,6.5
	c-0.7-0.4-1.6-0.7-2.5-0.7c-0.2,0-0.4,0-0.5,0c-2.6,0.3-4.7,2.6-4.7,5.4c0,3,2.4,5.4,5.3,5.4c2.9,0,5.2-2.4,5.2-5.4
	c0-1.2-0.4-2.4-1.1-3.3l6.1-6.1h50.8l4.7,4.7v7.6l0.3,0.3l6.5,6.5l0.3,0.3h18.2l0.3-0.3l17.9-17.9h169.3l5.1,5.1v10.5
	c-2.4,0.6-4.2,2.8-4.2,5.4c0,3.1,2.5,5.5,5.6,5.5c3.1,0,5.5-2.5,5.5-5.5c0-2.8-2-5.1-4.7-5.5V140l-0.3-0.3l-5.7-5.7l-0.3-0.3H368.1
	l-0.3,0.3l-17.9,17.9h-16.4l-5.9-5.9v-7.6l-0.3-0.3l-5.4-5.4l-0.3-0.3L268.9,132.4L268.9,132.4z M637.2,135.7
	c-3.1,0-5.5,2.5-5.5,5.6c0,1.1,0.3,2.2,0.9,3L590,186.9l-0.3,0.3v70.6l-8,8l-0.3,0.3v23.6l0.3,0.3l11.3,11.3l0.3,0.3h23.6l53.3,53.2
	v39.9l-2.3,2.3l-0.3,0.3v3.3c-2.6,0.5-4.6,2.7-4.6,5.5c0,3.1,2.5,5.5,5.5,5.5s5.5-2.5,5.5-5.5c0-2.6-1.8-4.8-4.3-5.4v-2.5l2.3-2.3
	l0.3-0.3v-41.7l-0.3-0.3l-53.9-53.9l-0.3-0.3h-23.6l-10.7-10.7v-21.8l8-8l0.3-0.3v-70.6l42.2-42.2c0.9,0.6,1.9,0.9,3,0.9
	c3.1,0,5.6-2.5,5.6-5.5S640.2,135.7,637.2,135.7L637.2,135.7z M657.2,139.4c-3.1,0-5.6,2.5-5.6,5.5c0,1.3,0.5,2.5,1.3,3.5
	l-11.8,11.8h-10.8l-0.3,0.3l-29.8,29.8l-0.3,0.3v71.3l-9,9l-0.3,0.3v14.7l0.3,0.3l5.4,5.4l0.3,0.3h25.1l58.2,58.2v47.7l0.3,0.3
	l3.8,3.8l0.3,0.3H752l6,6l0.3,0.3H904l50.5,50.4v131.7c-5.2,0.7-9.2,5.2-9.2,10.5c0,0.4,0,0.9,0.1,1.3h21.1c0.1-0.4,0.1-0.9,0.1-1.3
	c0-5.6-4.4-10.2-9.9-10.6V458.3l-0.3-0.3l-51.1-51.1l-0.3-0.3H759.2l-6-6l-0.3-0.3h-67.7l-3.2-3.1v-47.8l-0.3-0.3l-58.8-58.8
	l-0.3-0.3h-25.1l-4.8-4.7v-12.9l9-9l0.3-0.3v-71.3l29.2-29.2h10.9l0.3-0.3l12.3-12.2c0.8,0.4,1.6,0.7,2.5,0.7c3.1,0,5.6-2.5,5.6-5.6
	S660.3,139.4,657.2,139.4L657.2,139.4z M599.1,142.4c-3.1,0-5.6,2.5-5.6,5.6c0,2.4,1.5,4.4,3.6,5.2v12.1L581,181.4l-0.3,0.3v70.8
	l-9.6,9.6l-0.3,0.3v31.9l0.3,0.3l15.5,15.5l0.3,0.3H613l48.9,48.9V388l-8.4,8.4l-0.3,0.3v16.1l0.3,0.3l7.9,7.9l0.3,0.3H675
	l18.1,18.1l0.3,0.3h94.4l8.2,8.2l0.3,0.3h81.5l33.5,33.5v95.2l0.3,0.3l18.4,18.3v7.3h2.2v-8.1l-0.3-0.3l-18.4-18.4v-95.2l-0.3-0.3
	L879,446.3l-0.3-0.3h-81.6l-8.2-8.2l-0.3-0.3h-94.4l-18.1-18l-0.3-0.3h-13.3l-7.2-7.2v-14.2l8.5-8.4l0.3-0.3v-30.5l-0.3-0.3
	l-49.6-49.6l-0.3-0.3h-26.1L573,293.4v-30.1l9.5-9.5l0.3-0.3v-70.9l16.2-16.2l0.3-0.3v-12.6c2.9-0.1,5.3-2.6,5.3-5.5
	C604.7,144.9,602.2,142.4,599.1,142.4L599.1,142.4z M612.5,142.7c-3.1,0-5.6,2.5-5.6,5.5c0,2.8,2,5.1,4.7,5.5v4l-26,26l-0.3,0.3
	v70.8l-8.6,8.6l-0.3,0.3v28.8l0.3,0.3l13.1,13.1l0.3,0.3h25.1l50.7,50.7v34.7l-8,8l-0.3,0.3v11.5l0.3,0.3l4.6,4.6l0.3,0.3h14.2
	l18.5,18.5l0.3,0.3h93.5l8.6,8.6l0.3,0.3h92.1l29.6,29.6v101.1l0.3,0.3l14.5,14.5v12.8h2.2V589l-0.3-0.3L922,574.2V473.1l-0.3-0.3
	l-30.2-30.2l-0.3-0.3H799l-8.5-8.5l-0.3-0.3h-93.5l-18.5-18.5l-0.3-0.3h-14.2l-4-4V401l8.1-8.1l0.3-0.3V356l-0.3-0.3l-51.3-51.3
	l-0.3-0.3H591l-12.4-12.5v-27l8.6-8.6l0.3-0.3v-70.9l26-26l0.3-0.3v-4.9c2.4-0.6,4.2-2.8,4.2-5.4C618,145.2,615.6,142.7,612.5,142.7
	L612.5,142.7z M521.9,151.2c-3.1,0-5.6,2.5-5.6,5.5c0,3.1,2.5,5.6,5.6,5.6c3.1,0,5.5-2.5,5.5-5.6S524.9,151.2,521.9,151.2z
	 M255.7,151.9l-0.3,0.2l-5.3,3.1l-0.5,0.3v11.3l-3.2,3.3l-0.3,0.3v20.3l0.3,0.3l5.9,5.9l0.3,0.3h9.4l8.7,9.5l0.3,0.4h11.8l3.5,1
	l0.1,0h15.8l139.9,139.9v99.8l0.3,0.3l7,7.1v76.1l0.3,0.3l25,25l0.3,0.3h31l7.9,7.9v31.2l0.3,0.3l5.4,5.4l0.3,0.3h194.2l0.5,0.5h3.1
	l-2.4-2.4l-0.3-0.3H521.1l-4.8-4.8v-31.1l-0.3-0.3l-8.6-8.6l-0.3-0.3H476l-24.3-24.3v-76.1l-0.3-0.3l-7-7.1v-99.8l-0.3-0.3
	L303.5,206.3l-0.3-0.3h-16.5l-3.6-1l-0.1,0h-11l-8.7-9.6l-0.3-0.4h-9.4l-5.3-5.3v-18.5l3.3-3.3l0.3-0.3v-11l4.5-2.6h33.1l4.3,4.3
	c-0.8,0.9-1.2,2.1-1.2,3.5c0,3,2.3,5.4,5.2,5.4s5.2-2.4,5.2-5.4s-2.3-5.4-5.2-5.4c-0.8,0-1.6,0.2-2.3,0.6l-4.8-4.8l-0.3-0.3
	L255.7,151.9L255.7,151.9z M261.4,156.5c-2.9,0-5.2,2.4-5.2,5.4c0,1.7,0.8,3.2,2,4.2l-7.1,7l-0.3,0.3v12.2l0.3,0.3l5,5l0.3,0.3h6.6
	l7.6,7.6l0.3,0.3h13.4l4.6,4.6l0.3,0.3H309L412.9,308l0.3,0.3h23.1l11.5,11.5v126l0.3,0.3l7.9,7.9v75.3l0.3,0.3l21.3,21.3l0.3,0.3
	h32l10.2,10.2v12l0.3,0.3l16.7,16.7l0.3,0.3H580l0.3-0.3l19.3-19.3h56l16.3,16.3l0.3,0.3h86.7l3.9,2.3v12.6h2.2v-13.8l-0.6-0.3
	l-4.7-2.8l-0.3-0.1h-86.3l-16.3-16.3l-0.3-0.3h-57.8l-0.3,0.3l-19.2,19.2h-40.8l-16-16v-12l-0.3-0.3l-10.9-10.8l-0.3-0.3h-31.9
	l-20.7-20.7v-75.3l-0.3-0.3L450,445V319l-0.3-0.3l-12.2-12.2l-0.3-0.3h-23.1L310.2,202.3l-0.3-0.3h-19.6l-4.7-4.7l-0.3-0.3H272
	l-7.6-7.6l-0.3-0.3h-6.6l-4.4-4.4v-10.3l7.3-7.2c0.4,0.1,0.7,0.1,1.1,0.1c2.9,0,5.2-2.4,5.2-5.4S264.3,156.5,261.4,156.5
	L261.4,156.5z M279.3,156.5c-2.9,0-5.2,2.4-5.2,5.4c0,1,0.3,1.8,0.7,2.6l-5.9,4.5l-0.4,0.3v0.6l0.3,13.5v0.4l0.3,0.3l6.2,6.2
	l0.3,0.3h11.8l5.5,5l0.3,0.3h19.1L416,299.6l0.3,0.3h23.6l17,17v110.1l0.3,0.3l36.3,36.3v19.5l0.3,0.3l18.5,18.5l0.3,0.3h9.5
	l12.2,12.2v8.8l0.3,0.3l8.7,8.7l0.3,0.3h18.1l12.3,12.3l0.3,0.3H595l14.8,14.8l0.3,0.3h52.4l17.3,17.3l0.3,0.3h87.2l5.9,5.9v18.9
	h2.2v-19.8l-0.3-0.3l-6.6-6.5l-0.3-0.3h-87.2l-17.3-17.3l-0.3-0.3H611l-14.8-14.8l-0.3-0.3h-20.5l-12.3-12.3l-0.3-0.3h-18.1l-8.1-8
	v-8.8l-0.3-0.3l-12.8-12.8l-0.3-0.3h-9.5l-17.9-17.9v-19.5l-0.3-0.3l-36.3-36.3V316l-0.3-0.3L441.2,298l-0.3-0.3h-23.6L313.5,194
	l-0.3-0.3H294l-5.5-5l-0.3-0.3h-11.8l-5.5-5.5l-0.3-12.5l5.5-4.2c0.9,0.7,1.9,1.1,3.1,1.1c2.9,0,5.3-2.4,5.3-5.4
	S282.2,156.5,279.3,156.5L279.3,156.5z M420.7,165.8l-0.5,0.5l-24.6,24.6h-14.2l-5.4-5.4c0.6-0.9,0.9-1.9,0.9-3.1
	c0-3-2.3-5.4-5.2-5.4s-5.2,2.4-5.2,5.4c0,3,2.3,5.4,5.2,5.4c0.6,0,1.1-0.1,1.6-0.3l6.2,6.2l0.5,0.5h17l0.5-0.5l24.6-24.6h68.6
	l13.4,13.4c-0.4,0.8-0.7,1.7-0.7,2.7c0,3.1,2.5,5.6,5.5,5.6s5.6-2.5,5.6-5.6s-2.5-5.5-5.6-5.5c-0.9,0-1.7,0.2-2.4,0.6l-14-14
	l-0.5-0.5H420.7L420.7,165.8z M440.9,173.8l-0.5,0.5l-22.1,22.2h-43.9l-12.1-12.1c0.2-0.6,0.4-1.3,0.4-1.9c0-3-2.3-5.4-5.2-5.4
	c-2.9,0-5.2,2.4-5.2,5.4s2.3,5.4,5.2,5.4c1,0,2-0.3,2.8-0.8l12.3,12.3l0.5,0.5h46.6l0.5-0.5l22.2-22.1H460l76.9,76.8v46.3l0.5,0.5
	l37,37l0.5,0.5h26.2l26.8,26.8v26.7c-2.6,0.4-4.7,2.7-4.7,5.5c0,3.1,2.5,5.5,5.5,5.5s5.6-2.5,5.6-5.5c0-2.2-1.3-4.1-3.1-5v-28.6
	l-0.5-0.5l-27.7-27.8l-0.5-0.5h-26.2l-36.1-36.1v-46.3l-0.5-0.5l-77.8-77.8l-0.5-0.5L440.9,173.8L440.9,173.8z M260.9,175.5
	c-2.6,0.3-4.7,2.6-4.7,5.4c0,3,2.3,5.4,5.2,5.4c0.3,0,0.7-0.1,1-0.1l8.6,8.7l0.3,0.3h14.4l3.3,3.3l0.3,0.3h20.2l104.7,104.7l0.3,0.3
	h23.6l14,13.9v125.5l0.3,0.3l6.3,6.4v76.3l0.3,0.3l20.6,20.6l0.3,0.3h30.8l9.4,9.4l0.3,0.3h64.1l8.4,8.4l0.3,0.3h64.8l16.7,16.7
	l0.3,0.3h88.3l4.2,4.1v15.7h2.2v-16.6l-0.3-0.3l-4.8-4.8l-0.3-0.3h-88.3L659.4,564l-0.3-0.3h-64.8l-8.4-8.4l-0.3-0.3h-64.1l-9.4-9.4
	l-0.3-0.3H481l-20-20v-76.2l-0.3-0.3l-6.3-6.4V316.9l-0.3-0.3L439.4,302l-0.3-0.3h-23.6L310.8,197l-0.3-0.3h-20.2l-3.3-3.3l-0.3-0.3
	h-14.4l-7.7-7.7c1.3-1,2.1-2.6,2.1-4.3c0-3-2.3-5.4-5.2-5.4C261.2,175.5,261.1,175.5,260.9,175.5L260.9,175.5z M278.8,175.5
	c-2.6,0.3-4.7,2.6-4.7,5.4c0,3,2.3,5.4,5.2,5.4c2.5,0,4.7-1.8,5.2-4.3h1.2l7,7l0.3,0.3h38.3l21.1,21.1l0.3,0.3h91.3l0.3-0.3l6.7-6.7
	c0.7,0.3,1.4,0.5,2.2,0.5h0.1v6.6l0.3,0.3l71,71v31.4l0.3,0.3l84.7,84.8v21.1l0.3,0.3l43.8,43.8l0.3,0.3h20.9l0.3-0.3l13.4-13.4H765
	l69.5,69.5l0.3,0.3h13.1l29.7,29.7v24.1l0.3,0.3l18.8,18.9v9.4h2.2v-10.3l-0.3-0.3l-18.8-18.8v-24.1l-0.3-0.3l-30.3-30.3l-0.3-0.3
	h-13.1l-69.5-69.5l-0.3-0.3h-78.1l-0.3,0.3L674.2,462h-19L612,418.9v-21.1l-0.3-0.3l-84.7-84.7v-31.4l-0.3-0.3l-71-71v-6.2
	c1.9-0.9,3.2-2.8,3.2-5c0-3.1-2.5-5.5-5.5-5.5c-3.1,0-5.6,2.5-5.6,5.5c0,1.5,0.6,2.8,1.5,3.7l-6.1,6.1h-89.4l-21.2-21.1l-0.3-0.3
	H294l-7.1-7.1l-0.3-0.3h-2.1c-0.5-2.5-2.6-4.3-5.2-4.3C279.2,175.5,279,175.5,278.8,175.5L278.8,175.5z M297.1,175.5
	c-2.6,0.3-4.7,2.6-4.7,5.4c0,3,2.3,5.4,5.2,5.4c2.7,0,4.8-2,5.2-4.7h27.6l23.6,23.6l0.5,0.5H434l0.5-0.5l15.9-15.9
	c0.9,0.5,1.9,0.8,2.9,0.8c2.1,0,3.9-1.2,4.9-3l71.9,71.9v43.3l0.5,0.5l40.8,40.8l0.5,0.5h25.4l23.3,23.3v10.1l-3.7,3.7l-0.5,0.5
	v30.8l0.5,0.5l41,41l0.5,0.5h6.6c0.4,2.8,2.8,5,5.7,5c3.2,0,5.8-2.6,5.8-5.8s-2.6-5.8-5.8-5.8c-2.3,0-4.3,1.4-5.2,3.3h-5.7l-40-40
	v-28l3.7-3.7l0.5-0.5v-12.8l-0.5-0.5l-24.3-24.3l-0.5-0.5h-25.4l-39.8-39.8v-43.3l-0.5-0.5l-74.3-74.3c-0.7-2.2-2.8-3.8-5.2-3.8
	c-3.1,0-5.6,2.5-5.6,5.5c0,0.8,0.2,1.5,0.5,2.2l-15.6,15.6h-76.8l-23.6-23.6l-0.5-0.5h-29.5c-0.9-1.7-2.6-2.8-4.6-2.8
	C297.5,175.5,297.3,175.5,297.1,175.5L297.1,175.5z M58.4,180l-0.3,0.3l-8.9,8.9l-0.3,0.3v143.2l-2.1,3.5l-0.1,0.3v79.2l0.3,0.3
	l59.1,59.1l0.3,0.3h32.1l16.7,16.7v54.4L127.9,574c-0.8-0.8-1.9-1.3-3.2-1.3c-2.6,0-4.7,2.2-4.7,4.8c0,2.6,2.1,4.7,4.7,4.7
	s4.7-2.1,4.7-4.7c0-0.6-0.1-1.1-0.3-1.6l27.9-28l0.3-0.3v-56.3l-0.3-0.3l-17.3-17.3l-0.3-0.3h-32.2l-58.5-58.5v-77.7l2.1-3.6
	l0.1-0.3V190.5l8.3-8.3h22.2l7.7,7.7v3.8c-2.5,0.5-4.4,2.8-4.4,5.5c0,3.1,2.5,5.5,5.5,5.5s5.6-2.5,5.6-5.5c0-2.7-1.9-4.9-4.5-5.5
	V189l-0.3-0.3l-8.3-8.3l-0.3-0.3L58.4,180L58.4,180z M59.8,186.4l-0.8,0.8l-3,2.9l-0.8,0.8v149.8l-2.8,2.8l-0.8,0.8v66.8l0.8,0.8
	l57.1,57.1l0.8,0.8h32.3l17.8,17.7v74.8L120,602.7h7.8l37.3-37.3l0.8-0.8v-79.3l-0.8-0.8l-19.4-19.4l-0.8-0.8h-32.3l-55.5-55.5
	v-62.2l2.9-2.9l0.8-0.8V193.3l1.4-1.4h11.2c0,0.1,0,0.1,0,0.2c0,3.1,2.5,5.5,5.5,5.5s5.5-2.5,5.5-5.5c0-3-2.4-5.5-5.5-5.5
	c0,0,0,0-0.1,0c-0.3-0.1-0.6-0.2-0.9-0.2L59.8,186.4L59.8,186.4z M191.5,188l-0.3,0.3l-5.3,5.2c-0.8-0.4-1.8-0.7-2.8-0.7
	c-3.2,0-5.9,2.6-5.9,5.9s2.6,5.9,5.9,5.9c3.2,0,5.9-2.6,5.9-5.9c0-1.4-0.5-2.8-1.4-3.8l4.8-4.8h12.2l34.3,34.3l0.3,0.3h7.2l8.6,8.6
	l0.3,0.3H270l2.4,2.4l0.3,0.3h19.3l121.5,121.5v117.8c-0.2,0.5-0.3,1.1-0.3,1.7c0,3.4,2.8,6.2,6.2,6.2s6.2-2.8,6.2-6.2
	s-2.8-6.2-6.2-6.2c-1.4,0-2.7,0.5-3.7,1.3V357.1l-0.3-0.3L293.3,234.7l-0.3-0.3h-19.4l-2.4-2.4l-0.3-0.3h-14.6l-8.6-8.6l-0.3-0.3
	h-7.1l-34.3-34.3l-0.3-0.3H191.5L191.5,188z M125.5,192.2c-3.5,0-6.3,2.8-6.3,6.3s2.8,6.4,6.3,6.4c1.2,0,2.3-0.3,3.2-0.9l7,7v17.1
	l0.3,0.3l21.9,21.9v22.5l0.3,0.3l69.7,69.7v27.4l0.3,0.3l9.9,9.9v222.2h2.2V379.6l-0.3-0.3l-9.9-9.9V342l-0.3-0.3l-69.7-69.7v-22.5
	l-0.3-0.3l-21.9-21.9v-17.1l-0.3-0.3l-7.2-7.1c0,0,0,0,0,0c0.9-1.1,1.4-2.5,1.4-4C131.9,195.1,129,192.2,125.5,192.2L125.5,192.2z
	 M145.3,192.6c-3.5,0-6.3,2.9-6.3,6.4c0,3.1,2.2,5.7,5.2,6.2V216l0.3,0.3l12,12l0.3,0.3h10.3l5.2,5.2V273l0.3,0.3l64.9,64.9v27.9
	l0.3,0.3l10.1,10.1v226.2h2.2V375.6l-0.3-0.3l-10.1-10.1v-27.9l-0.3-0.3l-64.9-64.9V233l-0.3-0.3l-5.9-5.9l-0.3-0.3h-10.2
	l-11.5-11.4v-9.9c3-0.5,5.3-3.1,5.3-6.2C151.7,195.5,148.8,192.6,145.3,192.6L145.3,192.6z M164.6,193.2c-3.5,0-6.3,2.8-6.3,6.3
	c0,3.5,2.8,6.3,6.3,6.3c1.3,0,2.5-0.4,3.5-1.1l4.4,4.5l0.3,0.3h13.3l5.7,5.7v25.4l0.3,0.3l9.7,9.7v27.3l0.3,0.3l31.6,31.6l0.3,0.3
	h28.6l15.2,15.2V352l0.3,0.3l25,25v225.4h2.2V376.4l-0.3-0.3l-25-25v-26.6l-0.3-0.3L264,308.3l-0.3-0.3h-28.5l-31-31v-27.3l-0.3-0.3
	l-9.8-9.8v-25.3l-0.3-0.3l-6.4-6.4l-0.3-0.3h-13.3l-4.1-4.1c0.8-1.1,1.3-2.4,1.3-3.8C171,196,168.1,193.2,164.6,193.2L164.6,193.2z
	 M202.1,193.8c-3.2,0-5.8,2.6-5.8,5.8s2.6,5.8,5.8,5.8c1.1,0,2.2-0.3,3.1-0.9l6.1,6v15.7l0.3,0.3l2.5,2.5l0.3,0.3h11l5.2,5.2v7.5
	l0.3,0.3l5.6,5.6l0.3,0.3h26.8l4.6,4.6v10.1l0.3,0.3l5.3,5.3l0.3,0.3h23.5l83.1,83.1v71.4l-27.2,27.2l-0.3,0.3v136.8l0.3,0.3
	l14.6,14.6h3.1l-15.8-15.8V452l27.2-27.1l0.3-0.3v-73.2l-0.3-0.3l-83.8-83.8l-0.3-0.3h-23.5l-4.7-4.7V252l-0.3-0.3l-5.3-5.3
	l-0.3-0.3h-26.8l-4.9-5v-7.5l-0.3-0.3l-5.9-5.9l-0.3-0.3h-10.9l-1.9-1.9v-15.6l-0.3-0.3l-6.3-6.3c0.7-1,1.1-2.1,1.1-3.4
	C208,196.4,205.3,193.8,202.1,193.8L202.1,193.8z M107.2,194c-3.1,0-5.5,2.5-5.5,5.5s2.5,5.6,5.5,5.6c1.3,0,2.5-0.5,3.4-1.2l5.5,5.5
	v19.4l0.3,0.3l17,17v80.7l0.3,0.3l6.5,6.5v33.3l0.3,0.3l27.8,27.9l0.3,0.3h8.2l7.4,7.4v199.9h2.2V401.9l-0.3-0.3l-8-8l-0.3-0.3h-8.2
	L142.5,366v-33.3l-0.3-0.3l-6.6-6.6v-80.7l-0.3-0.3l-17-17v-19.3l-0.3-0.3l-5.9-5.9c0.4-0.8,0.7-1.7,0.7-2.6
	C112.7,196.4,110.2,194,107.2,194L107.2,194z M508.9,195.1c-3.1,0-5.5,2.5-5.5,5.6c0,3.1,2.5,5.5,5.5,5.5c0.5,0,1-0.1,1.5-0.2
	l36,35.9v54.3l0.8,0.8l31.4,31.4l0.8,0.8h27.6l34.7,34.7v12.7c-2.1,0.8-3.6,2.8-3.6,5.2c0,3.1,2.5,5.5,5.6,5.5s5.5-2.5,5.5-5.5
	c0-1.7-0.8-3.2-1.9-4.2v-16l-0.8-0.8l-36.3-36.3l-0.8-0.8h-27.5L551.8,294v-54.4l-0.8-0.8l-36.8-36.7c0.1-0.5,0.2-0.9,0.2-1.4
	C514.5,197.6,512,195.1,508.9,195.1L508.9,195.1z M68.6,195.4c-3.1,0-5.5,2.5-5.5,5.5c0,3.1,2.5,5.6,5.5,5.6c0.7,0,1.4-0.1,2.1-0.4
	l4.2,4.2l0.3,0.3h16.2l4.6,4.6v4.5l0.3,0.3l28.5,28.5v82l0.3,0.3l6.6,6.6v44l0.3,0.3l1.4,1.4c-0.3,0.6-0.6,1.3-0.6,2.1
	c0,2.6,2.2,4.8,4.8,4.8c2.6,0,4.7-2.2,4.7-4.8c0-2.6-2.1-4.7-4.7-4.7c-1,0-2,0.4-2.8,0.9l-1-0.9v-44l-0.3-0.3l-6.5-6.5v-82l-0.3-0.3
	l-28.5-28.5v-4.5l-0.3-0.3l-5.2-5.2l-0.3-0.3H76l-3.5-3.5c1-1,1.6-2.4,1.6-3.9C74.1,197.9,71.7,195.4,68.6,195.4L68.6,195.4z
	 M164.3,211.4c-3.5,0-6.4,2.8-6.4,6.3c0,3.5,2.9,6.4,6.4,6.4c1.3,0,2.4-0.4,3.4-1l10.2,10.2v7.5l0.3,0.3l14.1,14.1v25.5l0.3,0.3
	l53.9,53.9v28.8l0.3,0.3l9.2,9.1l0.3,0.3h7.9l16.1,16.1v213.1h2.2V388.7l-0.3-0.3l-16.7-16.7l-0.3-0.3h-7.9l-8.5-8.5V334l-0.3-0.3
	l-53.9-53.9v-25.6l-0.3-0.3l-14.1-14.1v-7.5l-0.3-0.3l-10.4-10.5c0.8-1.1,1.3-2.4,1.3-3.9C170.7,214.2,167.8,211.4,164.3,211.4
	L164.3,211.4z M201.9,211.9c-3.2,0-5.9,2.6-5.9,5.9c0,3.2,2.6,5.9,5.9,5.9h0.1v1.9l0.3,0.3l9,9v39.3l0.3,0.3l26.4,26.4l0.3,0.3h48.4
	l19.7,19.7v14.9l0.3,0.3l46.5,46.5v27.9l-26,26l-0.3,0.3v165.8h2.9l-0.7-0.7V437.8l26-26.1l0.3-0.3v-29.7l-0.3-0.3l-46.5-46.5V320
	l-0.3-0.3L288,299.3l-0.3-0.3h-48.4l-25.7-25.8v-39.3l-0.3-0.3l-9-9v-1.4c2.1-0.9,3.6-3,3.6-5.4
	C207.8,214.5,205.2,211.9,201.9,211.9L201.9,211.9z M221.5,212.2c-3.2,0-5.9,2.6-5.9,5.9s2.6,5.9,5.9,5.9c1.6,0,3-0.6,4.1-1.7
	l7.1,7.1l0.3,0.3h11.6l8.3,8.3l0.3,0.3h15l1.9,1.9l0.3,0.3h18.1l119.9,119.9v57.5l-40,40l-0.3,0.3v122.8l0.3,0.3l21.4,21.4h3.1
	L370.3,580V459.1l40-40l0.3-0.3v-59.4l-0.3-0.3L289.8,238.6l-0.3-0.3h-18.1l-1.9-1.9l-0.3-0.3h-15.1l-8.3-8.2l-0.3-0.3h-11.6l-7-7
	c0.3-0.7,0.5-1.6,0.5-2.4C227.4,214.8,224.7,212.2,221.5,212.2L221.5,212.2z M107.8,212.8c-3.1,0-5.5,2.5-5.5,5.6
	c0,2.7,1.9,5,4.5,5.4l0.2,0.8l0.1,0.3l0.2,0.2l21.8,21.8v82.2l0.3,0.3l6.2,6.2v32.6l0.3,0.3l31.1,31.1l0.3,0.3h6.8l4.5,4.5v198.1
	h2.2v-199l-0.3-0.3l-5.2-5.1L175,398h-6.7l-30.5-30.5v-32.7l-0.3-0.3l-6.2-6.2v-82.3l-0.3-0.3L109,223.8c2.5-0.5,4.4-2.7,4.4-5.4
	C113.4,215.3,110.9,212.8,107.8,212.8L107.8,212.8z M183.3,213c-3.2,0-5.9,2.6-5.9,5.9c0,3,2.2,5.4,5.1,5.8v15.4l0.3,0.3l13.6,13.6
	v24.9l0.3,0.3l35,35l0.3,0.3h28.4l13.7,13.7v28l0.3,0.3l23.8,23.8v222.4h2.2V379.4l-0.3-0.3l-23.8-23.8v-28L276,327l-14.3-14.4
	l-0.3-0.3H233L198.6,278v-24.9l-0.3-0.3l-13.6-13.6v-14.7c2.5-0.6,4.4-3,4.4-5.7C189.2,215.6,186.5,213,183.3,213L183.3,213z
	 M126,213.1c-2.9,0-5.3,2.4-5.3,5.3c0,2.5,1.7,4.6,4,5.1v5.6l0.3,0.3l18,18l0.3,0.3h5.4l4.5,4.5v67.3l0.3,0.3l6.9,6.9l0.3,0.3h45.8
	l16.5,16.5v28l0.3,0.3l10,10.5v220.3h2.2V381.6l-0.3-0.3l-10-10.5v-28l-0.3-0.3l-17.1-17.2l-0.3-0.3h-45.8l-6.3-6.2v-67.4l-0.3-0.3
	l-5.1-5.2l-0.3-0.3h-5.4L127,228.3v-4.7c2.4-0.5,4.3-2.6,4.3-5.1C131.3,215.5,128.9,213.1,126,213.1L126,213.1z M30.5,213.3
	c-3.2,0-5.9,2.6-5.9,5.9c0,0.9,0.2,1.7,0.5,2.4l-5.2,5.2l-0.3,0.3v14.1L7.5,253.3l-0.3,0.3v81.5l-2.7,2.6l-0.3,0.3v89.1l0.3,0.3
	l102.1,102.1v11.6c-2.1,0.5-3.6,2.4-3.6,4.6c0,2.6,2.1,4.7,4.7,4.7c2.6,0,4.8-2.1,4.8-4.7c0-2.2-1.6-4.1-3.7-4.6v-12.5l-0.3-0.3
	L6.4,426.3V339l2.7-2.7l0.3-0.3v-81.5l12.1-12.2l0.3-0.3v-14.1l4.6-4.6c1.1,1,2.5,1.6,4.1,1.6c3.2,0,5.9-2.6,5.9-5.9
	C36.4,215.9,33.8,213.3,30.5,213.3L30.5,213.3z M86.5,213.4c-2.8,0.3-5,2.7-5,5.5c0,3.1,2.5,5.5,5.5,5.5c0.6,0,1.2-0.1,1.8-0.3h4.3
	l26.8,26.8v82.6l0.3,0.3l6.4,6.4v50.6l0.3,0.3l4.8,4.8l0.3,0.3h14.5c0.6,2,2.3,3.5,4.5,3.5c2.6,0,4.8-2.1,4.8-4.7s-2.2-4.8-4.8-4.8
	c-2.3,0-4.2,1.6-4.6,3.8h-13.5l-4.2-4.1v-50.6l-0.3-0.3l-6.4-6.4V250l-0.3-0.3l-27.5-27.5l-0.3-0.3h-2.4c0.6-0.9,0.9-1.9,0.9-3
	c0-3.1-2.5-5.5-5.5-5.5C86.9,213.4,86.7,213.4,86.5,213.4L86.5,213.4z M69,213.5c-3.1,0-5.6,2.5-5.6,5.6s2.5,5.5,5.6,5.5
	c1.2,0,2.3-0.4,3.2-1l4.8,4.9l0.3,0.3h13l24.9,24.9v83.3l0.3,0.3l6.4,6.4v48.6l0.3,0.3l13.7,13.7l0.6-0.6c0.7,1.8,2.4,3.2,4.5,3.2
	c2.6,0,4.7-2.1,4.7-4.7s-2.1-4.7-4.7-4.7c-2.5,0-4.5,1.9-4.7,4.3l-12.3-12.3v-48.6l-0.3-0.3l-6.4-6.4v-83.2l-0.3-0.3l-25.6-25.5
	l-0.3-0.3H78.3l-4.6-4.6c0.5-0.8,0.8-1.8,0.8-2.9C74.5,216,72.1,213.5,69,213.5L69,213.5z M569.1,216.3c-3.1,0-5.5,2.5-5.5,5.5
	s2.5,5.5,5.5,5.5s5.6-2.5,5.6-5.5S572.1,216.3,569.1,216.3z M457,223.1c-3.1,0-5.5,2.5-5.5,5.5c0,3.1,2.5,5.5,5.5,5.5
	s5.5-2.5,5.5-5.5C462.5,225.5,460.1,223.1,457,223.1z M361.9,223.9c-2.8,0.3-5,2.7-5,5.5c0,3.1,2.5,5.5,5.5,5.5
	c3.1,0,5.6-2.5,5.6-5.5c0-3.1-2.5-5.5-5.6-5.5C362.3,223.9,362.1,223.9,361.9,223.9L361.9,223.9z M376.1,225.6
	c-3.1,0-5.6,2.5-5.6,5.5s2.5,5.6,5.6,5.6c2.9,0,5.2-2.2,5.5-5.1h61.6l8.6,8.6c-0.2,0.6-0.4,1.3-0.4,1.9c0,3.1,2.5,5.6,5.5,5.6
	s5.5-2.5,5.5-5.6c0-3.1-2.5-5.5-5.5-5.5c-1.2,0-2.3,0.4-3.1,1l-8.8-8.8l-0.5-0.5h-63.7C379.9,226.7,378.1,225.6,376.1,225.6
	L376.1,225.6z M202.5,231c-3,0.3-5.3,2.8-5.3,5.9c0,2.9,2.2,5.4,5,5.8v3.2l0.3,0.3l3.2,3.2v25l0.3,0.3l30.4,30.4l0.3,0.3h46.8
	l18.4,18.4v13.8l0.3,0.3l32.7,32.7v45l-12.6,12.6l-0.3,0.3v174.3h2.2V429.3l12.6-12.6l0.3-0.3v-46.8l-0.3-0.3l-32.6-32.6v-13.8
	l-0.3-0.3l-19-19l-0.3-0.3h-46.8l-29.8-29.8v-25l-0.3-0.3l-3.2-3.2v-2.3c2.6-0.6,4.6-2.9,4.6-5.7c0-3.2-2.6-5.9-5.9-5.9
	C202.9,231,202.7,230.9,202.5,231L202.5,231z M164.7,231.7c-3.5,0-6.3,2.8-6.3,6.3c0,2.9,1.9,5.3,4.5,6.1v25.9l0.3,0.3l70,70V368
	l0.3,0.3l10.2,10.2v224.2h2.2V377.6l-0.3-0.3l-10.2-10.2v-27.7l-0.3-0.3l-70-70v-24.7c3.3-0.2,6-2.9,6-6.3
	C171.1,234.6,168.2,231.7,164.7,231.7L164.7,231.7z M241.3,231.7c-3.2,0-5.9,2.6-5.9,5.9c0,3.2,2.6,5.9,5.9,5.9
	c1.5,0,2.8-0.5,3.8-1.4l0.3,0.3l0.3,0.3H265l2.6,2.6l0.3,0.3h19.5L403.7,362v53l-40.2,40.2l-0.3,0.3v127.7l0.3,0.3l19.2,19.2h3.1
	l-20.4-20.4V456.4l40.2-40.2l0.3-0.3v-54.8l-0.3-0.3L288.7,243.8l-0.3-0.3h-19.5l-2.6-2.6l-0.3-0.3h-19.2l-0.2-0.3
	c0.4-0.8,0.7-1.7,0.7-2.7C247.2,234.4,244.5,231.7,241.3,231.7L241.3,231.7z M11.5,232.2c-3.2,0-5.9,2.6-5.9,5.9c0,1,0.3,2,0.7,2.8
	l-4.5,4.6l-0.3,0.3v26.3l-1.2,2.1L0,274.5v156.2l0.3,0.3l54.7,54.7v8.6l0.3,0.3L70,509.2c-0.4,0.7-0.6,1.5-0.6,2.3
	c0,2.6,2.1,4.7,4.7,4.7s4.8-2.1,4.8-4.7s-2.2-4.8-4.8-4.8c-1,0-2,0.3-2.7,0.9l-14.1-14.1v-8.6l-0.3-0.3L2.2,429.8V275l1.2-2.1
	l0.1-0.3v-25.9l4.1-4.1c1,0.9,2.3,1.4,3.8,1.4c3.2,0,5.9-2.6,5.9-5.9C17.3,234.9,14.7,232.2,11.5,232.2L11.5,232.2z M30.5,232.2
	c-3.2,0-5.9,2.6-5.9,5.9c0,2,1,3.8,2.5,4.9l-13.7,13.6l-0.3,0.3v78.7l-4,4.1l-0.3,0.3v80.7l0.3,0.3l103.5,103.5l0.3,0.3h5
	c0,2.6,2.2,4.7,4.8,4.7c2.6,0,4.7-2.1,4.7-4.7s-2.1-4.8-4.7-4.8c-1.9,0-3.5,1.1-4.3,2.6h-4.6L10.9,419.9V341l4.1-4l0.3-0.3v-78.7
	l13.9-14h0c0.4,0.1,0.8,0.1,1.2,0.1c3.2,0,5.9-2.6,5.9-5.9C36.4,234.9,33.7,232.2,30.5,232.2L30.5,232.2z M87.2,232.2
	c-3.1,0-5.6,2.5-5.6,5.5s2.5,5.6,5.6,5.6c1.6,0,3.1-0.8,4.1-1.9l4.9,4.9v16l0.3,0.3l2.6,2.6v68.4l0.3,0.3l13.9,13.9v53.5l0.3,0.3
	l21.9,21.9l0.3,0.3h28.8l0.3-0.3l6.5-6.5l0.3-0.3v-3.6c2.2-0.4,3.8-2.4,3.8-4.7c0-2.6-2.1-4.7-4.7-4.7c-2.6,0-4.7,2.1-4.7,4.7
	c0,2.2,1.5,4,3.5,4.6v2.8l-5.8,5.8h-27l-21.3-21.3v-53.5l-0.3-0.3l-14-14v-68.4l-0.3-0.3l-2.6-2.6v-16l-0.3-0.3l-5.6-5.6
	c0.2-0.5,0.3-1.1,0.3-1.7C92.7,234.7,90.3,232.2,87.2,232.2L87.2,232.2z M69.1,232.4c-3.1,0-5.5,2.5-5.5,5.5c0,3.1,2.5,5.6,5.5,5.6
	c0.9,0,1.7-0.2,2.5-0.6l5.4,5.4v14.6l0.3,0.3l9.1,9v65l0.3,0.3l2.4,2.4V420l0.3,0.3l14.2,14.3l0.3,0.3h17.1l4.7,4.7v10.4
	c-2.1,0.5-3.6,2.4-3.6,4.6c0,2.6,2.1,4.7,4.7,4.7s4.8-2.1,4.8-4.7c0-2.3-1.6-4.2-3.8-4.6v-11.2l-0.3-0.3l-5.4-5.3l-0.3-0.3h-17.2
	l-13.6-13.6v-79.9l-0.3-0.3l-2.4-2.4v-65l-0.3-0.3l-9-9v-14.7l-0.3-0.3l-5.6-5.6c0.8-1,1.4-2.2,1.4-3.6
	C74.7,234.9,72.2,232.4,69.1,232.4L69.1,232.4z M222.4,232.4c-3.2,0-5.9,2.6-5.9,5.9c0,3.2,2.5,5.7,5.6,5.9v0.9l0.3,0.3l8.2,8.1
	v25.3l0.3,0.3l11.7,11.7l0.3,0.3h47.8l25.5,25.5v10.8l0.3,0.3l46.1,46.1v40.9L335.7,442l-0.3,0.3v154.8l0.3,0.3l5.3,5.3h3.1
	l-6.6-6.6V443.2l27.1-27.1l0.3-0.3V373l-0.3-0.3l-46.1-46.1v-10.8l-0.3-0.3L292,289.3l-0.3-0.3h-47.8l-11.1-11.1v-25.4l-0.3-0.3
	l-8.2-8.2v-0.3c2.3-0.8,4-3,4-5.5C228.2,235,225.6,232.4,222.4,232.4L222.4,232.4z M383.3,234.9l-0.5,0.5l-4.4,4.4
	c-0.7-0.3-1.5-0.6-2.3-0.6c-3.1,0-5.6,2.5-5.6,5.6c0,3.1,2.5,5.5,5.6,5.5s5.5-2.5,5.5-5.5c0-1-0.3-2-0.8-2.8l3.9-3.9h56.6l3.3,3.3
	l0.2,6l0,0.8l0.7,0.5l6.6,4.9c-0.4,0.8-0.7,1.6-0.7,2.6c0,3.1,2.5,5.5,5.5,5.5s5.5-2.5,5.5-5.5c0-3.1-2.5-5.5-5.5-5.5
	c-0.9,0-1.8,0.2-2.5,0.6l-6.4-4.7l-0.2-5.8l0-0.7l-0.4-0.4l-4.2-4.2l-0.5-0.5H383.3L383.3,234.9z M569.9,243.5
	c-3.1,0-5.5,2.5-5.5,5.6s2.5,5.5,5.5,5.5c3.1,0,5.5-2.5,5.5-5.5S573,243.5,569.9,243.5z M399.9,246.1c-2.8,0.3-4.9,2.7-4.9,5.5
	c0,3.1,2.5,5.5,5.5,5.5c2.4,0,4.5-1.6,5.2-3.7h4l72,72l0.8,0.8h43.6l73.5,73.5v22.9l0.8,0.8l50.1,50.1l0.8,0.8h22.5
	c0.8,2.2,2.9,3.8,5.4,3.8c3.2,0,5.8-2.6,5.8-5.8c0-3.2-2.6-5.8-5.8-5.8c-1.9,0-3.6,0.9-4.6,2.4h-21l-48.5-48.5v-22.8l-0.8-0.8
	l-75.1-75.1l-0.8-0.8h-43.6l-72.1-72l-0.8-0.8h-7.3c-1-1.1-2.5-1.8-4.1-1.8C400.3,246.1,400.1,246,399.9,246.1L399.9,246.1z
	 M278.6,250.2c-3,0.3-5.3,2.8-5.3,5.9c0,3.2,2.6,5.9,5.9,5.9c2.9,0,5.3-2.1,5.8-4.8h7.3l107.3,107.3v48.4l-40.4,40.4l-0.3,0.3v132.8
	l0.3,0.3l16,16h3.1l-17.3-17.3V454.5l40.4-40.5l0.3-0.3v-50.2l-0.3-0.3l-108-108l-0.3-0.3H285c-0.5-2.7-2.9-4.7-5.8-4.7
	C279,250.2,278.8,250.2,278.6,250.2L278.6,250.2z M260.7,250.7c-3.2,0-5.9,2.6-5.9,5.9c0,2.8,1.9,5.1,4.5,5.7v13.2l0.3,0.3l6.2,6.2
	l0.3,0.3h28.7l29.8,29.8v10.8l0.3,0.3l46.1,46.1v50.2L345,445.8l-0.3,0.3v147.6l0.3,0.3l8.7,8.7h3.1l-9.9-9.9V447.1l26.1-26.2
	l0.3-0.3v-52l-0.3-0.3l-46.1-46.2v-10.8l-0.3-0.3l-30.4-30.4l-0.3-0.3h-28.7l-5.6-5.6v-12.2c2.8-0.4,5-2.9,5-5.8
	C266.6,253.4,263.9,250.7,260.7,250.7L260.7,250.7z M87.3,250.9c-3.1,0-5.6,2.5-5.6,5.5c0,3.1,2.5,5.6,5.6,5.6c0.5,0,1,0,1.4-0.2
	l4.8,4.9v143.8l0.3,0.3l8.2,8.2c-0.2,0.5-0.3,1.2-0.3,1.8c0,2.6,2.1,4.7,4.7,4.7c2.6,0,4.7-2.1,4.7-4.7c0-2.6-2.1-4.7-4.7-4.7
	c-1.2,0-2.3,0.4-3.1,1.2l-7.6-7.6V265.7l-0.3-0.3l-4.7-4.7c1.3-1,2.1-2.5,2.1-4.3C92.9,253.4,90.4,250.9,87.3,250.9L87.3,250.9z
	 M68.7,251c-2.8,0.3-5,2.7-5,5.5c0,3.1,2.5,5.5,5.5,5.5c0.5,0,1.1-0.1,1.6-0.3v1.4l0.3,0.3l8.5,8.6v66.3l0.3,0.3l4.6,4.5v78.3
	l0.3,0.3l17.3,17.2l0.3,0.3h7.2l3.4,3.4c-0.4,0.7-0.6,1.5-0.6,2.3c0,2.6,2.1,4.7,4.7,4.7s4.8-2.1,4.8-4.7c0-2.6-2.1-4.8-4.8-4.8
	c-1,0-1.9,0.3-2.6,0.8l-3.6-3.6l-0.3-0.3h-7.2l-16.6-16.6v-78.3l-0.3-0.3l-4.5-4.5v-66.3l-0.3-0.3l-8.6-8.6v-1.8
	c1.1-1,1.8-2.4,1.8-4c0-3.1-2.5-5.5-5.6-5.5C69,251,68.9,251,68.7,251L68.7,251z M242.4,251c-3.2,0-5.9,2.6-5.9,5.9
	c0,2.6,1.6,4.7,3.9,5.5v16.2l0.3,0.3l7.9,7.9l0.3,0.3h42.1l28.5,28.5v10.1l0.3,0.3l47.1,47.1v44.3l-26.9,26.9l-0.3,0.3V595l0.3,0.3
	l7.4,7.4h3.1l-8.7-8.7V445.7l26.9-27l0.3-0.3v-46.1L369,372l-47.1-47.1v-10.1l-0.3-0.3l-29.2-29.1l-0.3-0.3H250l-7.3-7.3v-15
	c3.1-0.1,5.6-2.7,5.6-5.9C248.3,253.7,245.7,251,242.4,251L242.4,251z M30.5,251.1c-3.2,0-5.9,2.6-5.9,5.9c0,1.2,0.4,2.3,1,3.2
	l-5.7,5.7l-0.3,0.3v14l0.3,0.3l1.5,1.5v53.5l-7.4,7.3l-0.3,0.3v73l0.3,0.3l9.7,9.7l0.3,0.3H27l89.7,89.7l0.3,0.3h13.4l0.3-0.3
	l5.2-5.2l0.3-0.3v-9.6l-0.3-0.3l-5.3-5.2c0.5-0.7,0.8-1.6,0.8-2.5c0-2.6-2.1-4.8-4.7-4.8s-4.8,2.2-4.8,4.8s2.1,4.7,4.8,4.7
	c0.9,0,1.7-0.3,2.4-0.7l5,5v7.8l-4.6,4.6h-11.5l-89.7-89.7l-0.3-0.3h-3l-9-9v-71.3l7.4-7.4l0.3-0.3v-55.3l-0.3-0.3l-1.5-1.5v-12.2
	l5.4-5.4c1,0.7,2.2,1.1,3.4,1.1c3.2,0,5.9-2.6,5.9-5.9C36.4,253.8,33.7,251.1,30.5,251.1L30.5,251.1z M221.7,251.3
	c-3.2,0-5.9,2.6-5.9,5.9c0,2.9,2.2,5.4,5,5.8v13.9l0.3,0.3l18.4,18.4l0.3,0.3h48.2l23,23v10.4l0.3,0.3l46.6,46.7v36.1l-26.8,26.8
	l-0.3,0.3v160l0.3,0.3l3,2.9h3.1l-4.2-4.2V440.4l26.8-26.8l0.3-0.3v-37.9l-0.3-0.3l-46.6-46.7V318l-0.3-0.3L289.4,294l-0.3-0.3
	h-48.3L223,275.9v-13c2.6-0.6,4.6-3,4.6-5.7C227.6,253.9,224.9,251.3,221.7,251.3L221.7,251.3z M107.7,251.4c-3.1,0-5.5,2.5-5.5,5.6
	c0,2.2,1.3,4.1,3.1,5v71.6l0.3,0.3l12.2,12.2v50.5l0.3,0.3l17.2,17.2l0.3,0.3h17.9c0.4,2.2,2.3,3.8,4.6,3.8c2.6,0,4.7-2.1,4.7-4.7
	s-2.1-4.8-4.7-4.8c-2.2,0-4,1.5-4.6,3.5h-17L120,395.6v-50.5l-0.3-0.3l-12.2-12.2v-70.1h0.2c3.1,0,5.6-2.5,5.6-5.5
	C113.2,253.9,110.7,251.4,107.7,251.4L107.7,251.4z M144.9,251.5c-3.1,0-5.5,2.5-5.5,5.5c0,2.7,2,5.1,4.6,5.5V330l0.1,0.3l1.7,2.9
	v31l0.3,0.3l26.1,26.1l0.3,0.3h5.9l9.3,9.2v202.5h2.2V399.3l-0.3-0.3l-9.9-9.9l-0.3-0.3h-5.9L148,363.3v-30.7l-0.1-0.3l-1.7-2.9v-67
	c2.5-0.6,4.3-2.8,4.3-5.4C150.4,254,148,251.5,144.9,251.5L144.9,251.5z M183,252.3c-3.2,0-5.9,2.6-5.9,5.9c0,3.2,2.6,5.8,5.8,5.9
	v14.2l0.3,0.3l58,58v27.5l0.3,0.3l10.1,10.1v228.2h2.2V373.7l-0.3-0.3l-10.1-10.1v-27.5l-0.3-0.3l-58-58v-13.6
	c2.2-0.8,3.8-3,3.8-5.5C188.9,255,186.2,252.3,183,252.3L183,252.3z M30.5,269.6c-3.2,0-5.9,2.6-5.9,5.9c0,2.9,2.2,5.4,5,5.8v52.9
	l-11.2,11.2l-0.3,0.3v66.8l0.3,0.3l6.9,6.9l0.3,0.3h5.1l86.2,86.2l0.3,0.3h4.4c0.3,2.3,2.3,4.1,4.7,4.1c2.6,0,4.7-2.1,4.7-4.7
	c0-2.6-2.1-4.7-4.7-4.7c-2.1,0-3.8,1.3-4.5,3.2h-3.7L32,418.2l-0.3-0.3h-5.1l-6.3-6.2v-65l11.2-11.3l0.3-0.3v-53.8
	c2.6-0.6,4.6-2.9,4.6-5.7C36.4,272.2,33.7,269.6,30.5,269.6L30.5,269.6z M335.1,312.6c-2.6,0-4.7,2.1-4.7,4.7c0,2.6,2.1,4.8,4.7,4.8
	c1,0,1.9-0.3,2.7-0.8h0l39.3,39.3v61l-27.8,27.7l-0.3,0.3v141l0.3,0.3l11.9,11.9h3.1l-13.1-13.1V450.5l27.8-27.8l0.3-0.3v-62.8
	l-0.3-0.3l-39.7-39.7c0.4-0.7,0.6-1.5,0.6-2.3C339.8,314.7,337.7,312.6,335.1,312.6L335.1,312.6z M432.6,315c-2.7,0-4.9,2.2-4.9,4.8
	s2.2,4.8,4.9,4.8c2.7,0,4.8-2.1,4.8-4.8S435.3,315,432.6,315z M294.5,320.9c-2.6,0-4.7,2.2-4.7,4.8s2.1,4.7,4.7,4.7
	c1,0,1.9-0.3,2.7-0.8v8.9l0.3,0.3l33.4,33.4v39.7l-13.2,13.2l-0.3,0.3v177.3h2.2V426.3l13.2-13.2l0.3-0.3v-41.5l-0.3-0.3l-33.5-33.4
	v-12c0-0.2-0.1-0.4-0.2-0.6c0,0,0,0,0,0C298.9,322.6,296.9,320.9,294.5,320.9L294.5,320.9z M256.7,324.4c-2.6,0-4.8,2.1-4.8,4.7
	c0,2.6,2.1,4.8,4.8,4.8c0.8,0,1.5-0.2,2.1-0.5l10.9,10.9v13.4l0.3,0.3l24.8,24.8v220h2.2V381.8l-0.3-0.3l-24.7-24.7v-13.4l-0.3-0.3
	L260.5,332c0.6-0.8,0.9-1.8,0.9-2.8C261.4,326.6,259.3,324.4,256.7,324.4L256.7,324.4z M468.6,326c-2.7,0-4.8,2.2-4.8,4.9
	s2.1,4.8,4.8,4.8c1.8,0,3.3-0.9,4.2-2.3l5.5,0.2l14.8,14.8v59l0.5,0.5l13.6,13.6l0.5,0.5h52.7l13,12.9v54.2l0.5,0.5l6,6l0.5,0.5
	h21.5l10,10v19.8l0.5,0.5l6.7,6.7l0.5,0.5h22.9l0.5-0.5l13.5-13.6h34.5l4.2,4.2l0.5,0.5h13.7l0.4-0.3l7.2-4.1h70.7l33.7,33.7v7.6
	l0.5,0.5l19.5,19.5l0.5,0.5h11.3l8.8,8.8v12.6h3.3v-13.9l-0.5-0.5l-9.7-9.7l-0.5-0.5h-11.4l-18.5-18.5V552l-0.5-0.5l-34.6-34.7
	l-0.5-0.5h-73l-0.4,0.2l-7.2,4.1h-11.4l-4.2-4.2l-0.5-0.5H655l-0.5,0.5L640.9,530h-20.2l-5.7-5.7v-19.8l-0.5-0.5l-11-11l-0.5-0.5
	h-21.4l-5-5v-54.2l-0.5-0.5l-14-13.9l-0.5-0.4H509l-12.6-12.6v-59l-0.5-0.5l-15.7-15.7l-0.4-0.5l-0.7,0l-5.7-0.2
	C472.9,327.8,471,326,468.6,326L468.6,326z M160,328.8c-2.6,0-4.7,2.1-4.7,4.7c0,2.6,2.1,4.7,4.7,4.7c0.8,0,1.5-0.2,2.1-0.5
	l10.9,10.9v23.7l0.3,0.3l3.5,3.5l0.3,0.3h7.3l18.2,18.2v208.1h2.2v-209l-0.3-0.3l-18.8-18.8l-0.3-0.3H178l-2.8-2.8v-23.7l-0.3-0.3
	l-11.1-11.1c0.6-0.8,0.9-1.8,0.9-2.8C164.7,330.9,162.6,328.8,160,328.8L160,328.8z M500.5,332.9v20.9h20.9v-20.9H500.5z M206.4,333
	c-2.6,0-4.8,2.1-4.8,4.7s2.2,4.7,4.8,4.7c1,0,1.9-0.3,2.6-0.8h0l10.6,10.7v21.4l0.3,0.3l9.6,9.6v219.1h2.2v-220l-0.3-0.3l-9.6-9.6
	v-21.4l-0.3-0.3l-11-11.1c0.4-0.7,0.6-1.5,0.6-2.3C211.1,335.1,209,333,206.4,333L206.4,333z M183.2,334.1c-2.6,0-4.7,2.1-4.7,4.8
	c0,2.6,2.1,4.7,4.7,4.7c0.7,0,1.3-0.1,1.9-0.4h0l10.8,10.8v17.5l0.3,0.3l18.7,18.7v212.2h2.2V389.6l-0.3-0.3l-18.7-18.6v-17.5
	l-0.3-0.3l-10.9-10.9c0.7-0.8,1.1-1.9,1.1-3C188,336.2,185.8,334.1,183.2,334.1L183.2,334.1z M289.5,335.7c-2.6,0-4.7,2.1-4.7,4.7
	s2.1,4.7,4.7,4.7c1.9,0,3.6-1.1,4.4-2.8l32,32v36.2l-13.1,13.1l-0.3,0.3v178.7h2.2V424.9l13.1-13.1l0.3-0.3v-38l-0.3-0.3l-33.6-33.6
	C293.8,337.4,291.9,335.7,289.5,335.7L289.5,335.7z M256.8,339.6c-2.6,0-4.7,2.1-4.7,4.7c0,2.6,2.1,4.7,4.7,4.7
	c0.9,0,1.7-0.3,2.5-0.7l5.5,5.5v6.9l0.3,0.3l24,24v217.6h2.2V384.2l-0.3-0.3l-23.9-23.9V353l-0.3-0.3l-5.8-5.8
	c0.5-0.7,0.7-1.6,0.7-2.5C261.6,341.7,259.4,339.6,256.8,339.6L256.8,339.6z M468.6,340.4c-2.7,0-4.8,2.1-4.8,4.8s2.1,4.9,4.8,4.9
	c2.4,0,4.3-1.8,4.7-4c0.1,0,0.1,0,0.2,0h8.3l5.8,5.8v58.7l0.5,0.5l14.8,14.8l0.5,0.5h52.5l11.9,11.9v56.6l0.5,0.5l6.1,6.1l0.5,0.5
	h23.6l8.7,8.7v19.1l0.5,0.5l8.1,8.1l0.5,0.5h31.1l0.5-0.5l12.8-12.8h27.9l4.7,4.8l0.5,0.5h21.5l0.5-0.5l5.5-5.5h62.6l31.2,31.3v9.3
	l0.5,0.5l22,22l0.5,0.5h10.9l5.1,5v9.6h3.3v-11l-0.5-0.5l-6-6l-0.5-0.5h-10.9l-21-21v-9.3l-0.5-0.5l-32.2-32.2l-0.5-0.5h-65.4
	l-0.5,0.5l-5.5,5.5h-18.8l-4.7-4.7l-0.5-0.5h-30.7l-0.5,0.5L646,535.3h-28.4l-7.1-7.1v-19.1l-0.5-0.5l-9.7-9.7l-0.5-0.5h-23.6
	l-5.1-5.1v-56.6l-0.5-0.5l-12.9-12.9l-0.5-0.5h-52.5l-13.8-13.9v-58.7l-0.5-0.5l-6.8-6.7l-0.5-0.5h-9.7c-0.1,0-0.1,0-0.2,0
	c-0.2,0-0.4,0.1-0.5,0.1C472,341.3,470.4,340.4,468.6,340.4L468.6,340.4z M160.1,344c-2.6,0-4.8,2.1-4.8,4.7s2.2,4.7,4.8,4.7
	c0.7,0,1.3-0.1,1.9-0.4h0l6.2,6.2v15.8l0.3,0.3l6.2,6.2l0.3,0.3h6.7l15.1,15.1v205.8h2.2V396.1l-0.3-0.3L182.9,380l-0.3-0.3h-6.7
	l-5.5-5.5v-15.8l-0.3-0.3l-6.3-6.3c0.7-0.8,1.1-1.9,1.1-3C164.9,346.1,162.7,344,160.1,344L160.1,344z M28.9,344.9
	c-3.2,0-5.8,2.6-5.8,5.9s2.6,5.9,5.8,5.9s5.9-2.6,5.9-5.9S32.1,344.9,28.9,344.9z M67.1,345.6c-3.1,0-5.6,2.5-5.6,5.5
	s2.5,5.5,5.6,5.5s5.5-2.5,5.5-5.5S70.2,345.6,67.1,345.6z M104.4,347.4c-3.1,0-5.5,2.5-5.5,5.6s2.5,5.5,5.5,5.5s5.6-2.5,5.6-5.5
	S107.4,347.4,104.4,347.4z M206.4,348.2c-2.6,0-4.7,2.1-4.7,4.7c0,2.6,2.1,4.7,4.7,4.7c0.9,0,1.8-0.3,2.6-0.8l5.9,5.9v12.9l0.3,0.3
	l9.5,9.4v217.2h2.2V384.6l-0.3-0.3l-9.5-9.5v-12.9l-0.3-0.3l-6.3-6.2c0.4-0.7,0.7-1.5,0.7-2.4C211.2,350.3,209.1,348.2,206.4,348.2
	L206.4,348.2z M293.6,348.5c-2.6,0-4.7,2.1-4.7,4.8c0,2.6,2.1,4.7,4.7,4.7c0.8,0,1.6-0.2,2.2-0.6l11.2,11.2v234.1h2.2V367.7
	l-0.3-0.3L297.5,356c0.5-0.8,0.9-1.7,0.9-2.7C298.4,350.6,296.2,348.5,293.6,348.5z M183.3,349.3c-2.6,0-4.7,2.1-4.7,4.8
	c0,2.6,2.1,4.7,4.7,4.7c1.2,0,2.3-0.5,3.1-1.2l4.8,4.8v9.2l0.3,0.3l19.4,19.4v211.4h2.2V390.4l-0.3-0.3l-19.4-19.4v-9.2l-0.3-0.3
	l-5.4-5.4c0.2-0.5,0.3-1.1,0.3-1.7C188.1,351.4,186,349.3,183.3,349.3L183.3,349.3z M468.6,353c-2.7,0-4.8,2.1-4.8,4.8
	c0,2.7,2.1,4.9,4.8,4.9c1.1,0,2.1-0.4,3-1l7.9,7.9v44l0.5,0.5l57.4,57.4v16.7l0.5,0.5l7.3,7.3l0.5,0.5h14.8l11.9,11.9v15.3l0.5,0.5
	l7.9,7.9l0.5,0.5H598l13.8,13.7l0.5,0.5h40.8l0.5-0.5l11.2-11.2h116.6l23.7,23.7v29.5l-14.5,14.6h4.6L808,590l0.5-0.5v-32.2
	l-0.5-0.5l-24.7-24.6l-0.5-0.5H663.5l-0.5,0.5l-11.2,11.2h-38.1l-13.8-13.7l-0.5-0.5h-16.8l-6.9-6.9v-15.3l-0.5-0.5l-12.8-12.8
	l-0.5-0.5H547l-6.3-6.3v-16.7l-0.5-0.5l-57.5-57.4v-44l-0.5-0.5l-8.9-8.9c0.1-0.3,0.1-0.6,0.1-1C473.4,355.2,471.2,353,468.6,353
	L468.6,353z M257.2,353.1c-2.6,0-4.7,2.1-4.7,4.7s2.1,4.7,4.7,4.7c0.8,0,1.6-0.2,2.3-0.6l26,26v214.7h2.2V387.1l-0.3-0.3l-26.3-26.3
	c0.5-0.8,0.8-1.7,0.8-2.6C261.9,355.2,259.8,353.1,257.2,353.1L257.2,353.1z M160.5,357.5c-2.6,0-4.7,2.1-4.7,4.7
	c0,2.2,1.4,4,3.4,4.5v5l0.3,0.3l14.4,14.3l0.3,0.3h6.2l12.1,12.1v203.9h2.2V397.9l-0.3-0.3l-12.8-12.8l-0.3-0.3h-6.1l-13.7-13.7v-4
	c2.2-0.4,3.9-2.3,3.9-4.6C165.2,359.6,163.1,357.5,160.5,357.5L160.5,357.5z M524.7,360.4c-2.7,0-4.8,2.2-4.8,4.8s2.2,4.8,4.8,4.8
	c2.7,0,4.8-2.2,4.8-4.8S527.3,360.4,524.7,360.4z M206.8,361.7c-2.6,0-4.7,2.2-4.7,4.8c0,2.3,1.7,4.2,3.9,4.6v2.7l0.3,0.3l14.1,14.1
	v214.6h2.2V387.2l-0.3-0.3l-14.1-14.1v-1.9c1.9-0.6,3.4-2.3,3.4-4.5C211.6,363.8,209.5,361.7,206.8,361.7L206.8,361.7z M183.7,362.7
	c-2.6,0-4.8,2.2-4.8,4.8s2.1,4.7,4.8,4.7c1.1,0,2.1-0.4,2.9-1v3.2l0.3,0.3l19.8,19.8v208.2h2.2V393.6l-0.3-0.3l-19.8-19.8v-5h-0.5
	c0.1-0.3,0.1-0.7,0.1-1C188.5,364.9,186.4,362.7,183.7,362.7L183.7,362.7z M607.1,363.3c-5.3,0-9.6,4.3-9.6,9.5s4.3,9.5,9.6,9.5
	s9.5-4.2,9.5-9.5S612.4,363.3,607.1,363.3z M548.8,364.1c-2.7,0-4.8,2.1-4.8,4.8s2.2,4.8,4.8,4.8c2.7,0,4.8-2.2,4.8-4.8
	S551.5,364.1,548.8,364.1z M468.6,367.4c-2.7,0-4.8,2.2-4.8,4.8c0,2.7,2.1,4.8,4.8,4.8c0.8,0,1.5-0.2,2.2-0.5l0.9,1.5v41.8l0.5,0.5
	l57.5,55.1l-0.3,11.5v0.7l0.4,0.5l11.2,12.4l0.4,0.5l0.7,0l14.8,0.4l9.4,9.4v18.5l0.5,0.5l10.4,10.4l0.5,0.5h17.3l12.5,12.5l0.5,0.5
	h47l0.5-0.5l12.4-12.4h111.2l20.3,20.3v23.6l-18,18h4.7l16.2-16.2l0.5-0.5v-26.3l-0.5-0.5L780.8,538l-0.5-0.5H666.4l-0.5,0.5
	l-12.4,12.4h-44.3l-12.5-12.5l-0.5-0.5H579l-9.4-9.4v-18.5l-0.5-0.5l-10.4-10.3l-0.5-0.5l-0.7,0l-14.7-0.4l-10.3-11.4l0.3-11.5
	l0-0.7l-0.5-0.5l-57.5-55.2v-41.3l-0.2-0.4l-1.6-2.8c0.2-0.5,0.3-1.1,0.3-1.7C473.4,369.5,471.2,367.4,468.6,367.4L468.6,367.4z
	 M391.2,370.6c-2.7,0-4.8,2.2-4.8,4.8s2.1,4.8,4.8,4.8c2.7,0,4.8-2.2,4.8-4.8S393.9,370.6,391.2,370.6z M692.7,370.7v20.6h20.6v-5
	h38l11.2,11.2l1.6,1.6h145.7l67.8,67.8l1.4-1.4v-12.8l-63-63l-1.6-1.6H768.7l-11.2-11.2l-1.6-1.6h-42.5v-4.6H692.7z M262.5,380.3
	c-2.6,0-4.8,2.2-4.8,4.8s2.2,4.7,4.8,4.7c1,0,1.9-0.3,2.7-0.9l10.4,10.5v203.3h2.2V398.5l-0.3-0.3l-10.8-10.8
	c0.4-0.7,0.6-1.4,0.6-2.2C267.2,382.4,265.1,380.3,262.5,380.3L262.5,380.3z M262.6,394.4c-2.6,0-4.7,2.2-4.7,4.8
	c0,0.8,0.2,1.6,0.6,2.3l-1.7,1.7l-0.3,0.3v199.2h2.2V404.5l1.3-1.4h0c0.8,0.5,1.6,0.8,2.6,0.8c2.6,0,4.8-2.1,4.8-4.7
	S265.2,394.4,262.6,394.4L262.6,394.4z M527.1,396c-2.7,0-4.8,2.1-4.8,4.8s2.2,4.9,4.8,4.9c0.7,0,1.4-0.2,2-0.5l7.5,7.5l0.5,0.5
	h26.2l23.8,23.8v19l0.5,0.5l17.8,17.8v15.2l0.5,0.5l11,11l0.5,0.5h70.1l0.5-0.5l7.7-7.7h82.5l52,52v6.4c-1.9,1.1-3.2,3.1-3.2,5.4
	c0,3.5,2.8,6.2,6.2,6.2c3.5,0,6.3-2.8,6.3-6.2c0-3.4-2.7-6.2-6.1-6.3V544l-0.5-0.5l-53-53l-0.5-0.5h-85.3l-0.5,0.5l-7.7,7.7h-67.3
	l-10-10v-15.2l-0.5-0.5l-17.8-17.8v-19l-0.5-0.5l-24.8-24.8l-0.5-0.5h-26.2l-6.9-7c0.3-0.6,0.5-1.3,0.5-2
	C531.9,398.1,529.8,396,527.1,396L527.1,396z M551.2,396.8c-2.7,0-4.8,2.1-4.8,4.8s2.1,4.9,4.8,4.9c2.7,0,4.9-2.2,4.9-4.9
	S553.9,396.8,551.2,396.8L551.2,396.8z M504.2,397.2c-2.7,0-4.8,2.2-4.8,4.8c0,2.7,2.2,4.8,4.8,4.8c2.7,0,4.8-2.1,4.8-4.8
	C509,399.4,506.9,397.2,504.2,397.2z M573.4,397.2c-2.7,0-4.8,2.2-4.8,4.8c0,2.5,2,4.6,4.5,4.8v5.7l0.3,0.3l20.9,20.9v17.9l0.3,0.3
	l17.3,17.3v16.4l0.3,0.3l7.7,7.7l0.3,0.3h62.4l0.3-0.3l6.2-6.2h93.4l58.8,58.8c-1.2,1.1-1.9,2.7-1.9,4.5c0,3.5,2.8,6.3,6.3,6.3
	c3.5,0,6.2-2.8,6.2-6.3c0-3.5-2.8-6.2-6.2-6.2c-1,0-1.9,0.2-2.7,0.6l-59.4-59.3l-0.3-0.3h-95.1l-0.3,0.3l-6.3,6.2h-60.7l-7.1-7.1
	v-16.4l-0.3-0.3l-17.3-17.3v-17.9l-0.3-0.3L575,411.6v-5.1c1.8-0.7,3.2-2.4,3.2-4.5C578.2,399.4,576,397.2,573.4,397.2L573.4,397.2z
	 M586.4,397.2c-2.7,0-4.8,2.2-4.8,4.8c0,2.7,2.2,4.8,4.8,4.8s4.8-2.1,4.8-4.8C591.3,399.4,589.1,397.2,586.4,397.2z M104.3,401
	c-2.6,0-4.7,2.2-4.7,4.8c0,2.6,2.1,4.7,4.7,4.7s4.8-2.1,4.8-4.7C109.1,403.2,107,401,104.3,401L104.3,401z M66.8,401.3
	c-2.6,0-4.7,2.1-4.7,4.7c0,2.6,2.1,4.8,4.7,4.8s4.7-2.2,4.7-4.8C71.6,403.4,69.5,401.3,66.8,401.3z M345.7,401.3
	c-2.7,0-4.8,2.2-4.8,4.8c0,2.7,2.1,4.8,4.8,4.8c2.7,0,4.9-2.2,4.9-4.8S348.3,401.3,345.7,401.3L345.7,401.3z M391.7,401.3
	c-2.7,0-4.8,2.2-4.8,4.8c0,2.7,2.2,4.8,4.8,4.8s4.8-2.2,4.8-4.8S394.3,401.3,391.7,401.3L391.7,401.3z M317.9,401.7
	c-2.6,0-4.7,2.1-4.7,4.7s2.1,4.7,4.7,4.7c2.6,0,4.8-2.1,4.8-4.7C322.7,403.8,320.5,401.7,317.9,401.7L317.9,401.7z M28.9,401.9
	c-3.2,0-5.8,2.6-5.8,5.9s2.6,5.9,5.8,5.9s5.9-2.6,5.9-5.9S32.1,401.9,28.9,401.9z M267.2,408c-2.6,0-4.7,2.1-4.7,4.7
	c0,2.3,1.6,4.2,3.8,4.7v185.3h2.2V417.4c2-0.5,3.5-2.4,3.5-4.6C271.9,410.2,269.8,408,267.2,408L267.2,408z M703.4,410.1
	c-5.3,0-9.7,4.3-9.7,9.7s4.3,9.7,9.7,9.7c5.3,0,9.7-4.3,9.7-9.7S708.8,410.1,703.4,410.1z M803.5,411.9v21.3h22.1v-21.3H803.5z
	 M899.7,413.8c-3.1,0-5.5,2.5-5.5,5.6c0,3.1,2.5,5.5,5.5,5.5c3.1,0,5.6-2.5,5.6-5.5C905.2,416.3,902.7,413.8,899.7,413.8z
	 M665,432.2c-3.2,0-5.8,2.6-5.8,5.8s2.6,5.8,5.8,5.8c3.2,0,5.8-2.6,5.8-5.8S668.2,432.2,665,432.2z M617.3,453.1
	c-3.5,0-6.3,2.8-6.3,6.2c0,3.5,2.8,6.3,6.3,6.3c2.7,0,5.1-1.8,5.9-4.2h6.6l20.9,20.9l0.5,0.5h32.4l0.5-0.5l4.7-4.8l0.5-0.5v-17.9
	l2.7-2.7H760l86.1,86.1l0.5,0.5h10.8l15.5,15.5v19l0.5,0.5l17.4,17.4v7.3h3.3V594l-0.5-0.5l-17.4-17.4v-19l-0.5-0.5l-16.5-16.5
	l-0.5-0.5h-10.8l-86.1-86.1l-0.5-0.5h-70.6l-0.5,0.5l-3.7,3.7l-0.5,0.5v17.9l-3.8,3.8h-29.7l-20.9-20.9l-0.5-0.5h-7.8
	C622.9,455.2,620.4,453.1,617.3,453.1L617.3,453.1z M693.1,459.3v19.6h19.3v-19.6H693.1z M813.1,464.3c-6.2,0-11.2,5-11.2,11.2
	c0,6.2,5,11.2,11.2,11.2s11.2-5,11.2-11.2C824.4,469.3,819.3,464.3,813.1,464.3z M477.6,467.1c-6.1,0-11,5-11,11.1
	c0,6.1,4.9,11,11,11c1.2,0,2.5-0.2,3.6-0.6l9.5,9.7v27.4l1,1l11.9,11.9l1,1h24.4c0.8,1.6,2.4,2.8,4.4,2.8c2.7,0,4.8-2.2,4.8-4.8
	s-2.2-4.8-4.8-4.8c-0.5,0-1.1,0.1-1.5,0.3h-24.5l-9.9-9.9v-27.4l-1-1l-9.8-10c1.3-1.8,2.1-4.1,2.1-6.5
	C488.7,472.1,483.7,467.1,477.6,467.1L477.6,467.1z M514.4,467.1c-6.1,0-11.1,5-11.1,11.1c0,6.1,5,11,11.1,11c6.1,0,11-4.9,11-11
	S520.5,467.1,514.4,467.1z M555,467.1c-6.1,0-11.1,5-11.1,11.1c0,6.1,5,11,11.1,11s11-4.9,11-11S561.1,467.1,555,467.1z
	 M590.3,467.1c-6.1,0-11,5-11,11.1c0,6.1,4.9,11,11,11s11.1-4.9,11.1-11S596.4,467.1,590.3,467.1z M628.8,467.1c-6.1,0-11,5-11,11.1
	c0,6.1,4.9,11,11,11s11-4.9,11-11S634.9,467.1,628.8,467.1z M388,471.3l-0.3,0c-3.1,0.3-5.5,2.9-5.5,6.1c0,3.4,2.7,6.2,6.1,6.2
	c2.2,0,4.1-1.1,5.2-2.9l7.8,7.8v6.2l0.3,0.3l9,9v22l0.2,0.2l13.3,13.2v6.2l0.3,0.3l35.2,35.2v16.9l0.2,0.3l4.4,4.4h2.3l-5.3-5.3v-17
	l-0.2-0.3L425.8,545v-6.2l-0.2-0.3l-13.3-13.3v-22l-0.2-0.2l-9-9v-6.2l-0.3-0.2l-8.5-8.5c0.2-0.5,0.3-1.1,0.3-1.7
	c0-3.4-2.8-6.1-6.2-6.1L388,471.3L388,471.3z M377.5,480.1c-3.4,0-6.2,2.8-6.2,6.2s2.8,6.1,6.2,6.1c3.3,0,5.9-2.5,6.1-5.8h7.9
	l5.9,5.9v6.6l0.3,0.3l8.4,8.4v21.9l0.3,0.3l5.7,5.7v47.6l0.3,0.3l19,19h3.1l-20.3-20.3v-47.6l-0.3-0.3l-5.7-5.7V507l-0.3-0.3
	l-8.5-8.5v-6.5l-0.3-0.3l-6.5-6.6l-0.3-0.3h-9.1C382.6,482,380.3,480.1,377.5,480.1L377.5,480.1z M418.9,487.3
	c-3.4,0-6.2,2.8-6.2,6.2s2.8,6.2,6.2,6.2s6.1-2.8,6.1-6.2S422.3,487.3,418.9,487.3z M388.5,489.8c-3.4,0-6.2,2.8-6.2,6.2
	s2.8,6.2,6.2,6.2c1.7,0,3.3-0.7,4.4-1.9l9.1,9.1v17.6l-8.7,8.7l-0.3,0.3v43.1l0.3,0.3l23.5,23.5h3.1L395.2,578v-41.2l8.7-8.7
	l0.3-0.3v-19.4l-0.3-0.3l-9.7-9.7v0c0.3-0.7,0.5-1.6,0.5-2.4C394.7,492.5,391.9,489.8,388.5,489.8L388.5,489.8z M702.9,497.4
	c-5.8,0-10.5,4.7-10.5,10.5c0,5.8,4.7,10.5,10.5,10.5c5.8,0,10.4-4.7,10.4-10.5C713.3,502.1,708.6,497.4,702.9,497.4z M377.8,498.8
	c-3.4,0-6.2,2.7-6.2,6.1s2.8,6.2,6.2,6.2c3.1,0,5.7-2.4,6.1-5.4h8l5.4,5.4v11.9l-9.8,9.8l-0.3,0.3v47.4l0.3,0.3l22.1,22.1h3.1
	l-23.3-23.3v-45.6l9.8-9.8l0.3-0.3v-13.7l-0.3-0.3l-6-6l-0.3-0.3h-9.1C383.1,500.7,380.7,498.8,377.8,498.8L377.8,498.8z
	 M477.6,505.6c-6.1,0-11,5-11,11.1s4.9,11,11,11c6.1,0,11.1-4.9,11.1-11S483.7,505.6,477.6,505.6z M514.4,505.6
	c-6.1,0-11.1,5-11.1,11.1s5,11,11.1,11c6.1,0,11-4.9,11-11S520.5,505.6,514.4,505.6z M555,505.6c-6.1,0-11.1,5-11.1,11.1
	s5,11,11.1,11s11-4.9,11-11S561.1,505.6,555,505.6z M590.3,505.6c-6.1,0-11,5-11,11.1s4.9,11,11,11s11.1-4.9,11.1-11
	S596.4,505.6,590.3,505.6z M628.8,505.6c-6.1,0-11,5-11,11.1s4.9,11,11,11s11-4.9,11-11S634.9,505.6,628.8,505.6z M388.5,508.3
	c-3.4,0-6.2,2.8-6.2,6.2c0,3.1,2.3,5.7,5.4,6.1v5.5l-9.7,9.7l-0.3,0.3v42.1l0.3,0.3l24.3,24.3h3.1l-25.6-25.6v-40.2l9.7-9.7l0.3-0.3
	v-6.5c2.7-0.6,4.7-3.1,4.7-6C394.7,511,391.9,508.3,388.5,508.3L388.5,508.3z M377.8,517c-3.4,0-6.2,2.8-6.2,6.2
	c0,1,0.3,1.9,0.7,2.8v53.2l0.3,0.3l23.3,23.3h3.1l-24.6-24.6v-49.8c0.9,0.6,2.1,0.9,3.3,0.9c3.4,0,6.1-2.7,6.1-6.1
	C383.9,519.7,381.2,517,377.8,517L377.8,517z M403.3,533.2c-3.4,0-6.1,2.7-6.1,6.1c0,3.1,2.3,5.7,5.3,6.1v36.7l0.3,0.3l20.2,20.2
	h3.1l-21.5-21.5v-35.9c2.7-0.6,4.8-3,4.8-6C409.4,536,406.7,533.2,403.3,533.2L403.3,533.2z M758.7,542.8c-5.6,0-10.2,4.6-10.2,10.3
	s4.6,10.2,10.2,10.2s10.2-4.5,10.2-10.2S764.4,542.8,758.7,542.8z M671.6,544.9v18.8h18.8v-6.9h33.8l16.3,16.2l1,1h45
	c1.1,0.8,2.4,1.3,3.8,1.3c3.5,0,6.3-2.8,6.3-6.2c0-3.5-2.8-6.3-6.3-6.3c-2.9,0-5.2,1.9-6,4.6h-40.1l-16.2-16.2l-1-1h-36.6v-5.3
	L671.6,544.9L671.6,544.9z M421.3,551.7c-3.1,0.3-5.5,2.9-5.5,6.1c0,3.4,2.8,6.2,6.2,6.2s6.2-2.8,6.2-6.2s-2.8-6.1-6.2-6.1
	C421.7,551.7,421.5,551.7,421.3,551.7L421.3,551.7z M897.9,553.9c-5.6,0-10.2,4.6-10.2,10.2c0,5.7,4.6,10.2,10.2,10.2
	c5.6,0,10.2-4.6,10.2-10.2C908.1,558.5,903.5,553.9,897.9,553.9z M935.3,553.9c-5.7,0-10.2,4.6-10.2,10.2c0,5.7,4.6,10.2,10.2,10.2
	c5.7,0,10.2-4.6,10.2-10.2C945.6,558.5,941,553.9,935.3,553.9z M975.1,553.9c-5.7,0-10.2,4.6-10.2,10.2c0,5.7,4.6,10.2,10.2,10.2
	c1.4,0,2.8-0.3,4-0.8v-18.9C977.8,554.1,976.5,553.9,975.1,553.9L975.1,553.9z M860.2,555.9c-5.6,0-10.2,4.6-10.2,10.2
	s4.6,10.2,10.2,10.2s10.2-4.5,10.2-10.2S865.9,555.9,860.2,555.9z M571.7,560.5c-2.7,0-4.8,2.2-4.8,4.8c0,2.7,2.2,4.8,4.8,4.8
	c2.7,0,4.8-2.2,4.8-4.8S574.4,560.5,571.7,560.5z M542.2,561.7c-2.7,0-4.8,2.1-4.8,4.8c0,2.7,2.1,4.9,4.8,4.9c2.7,0,4.9-2.2,4.9-4.9
	C547.1,563.9,544.9,561.7,542.2,561.7z M433.1,562.3c-3.4,0-6.2,2.8-6.2,6.2c0,0.1,0,0.2,0,0.3c0,0.1,0,0.2,0,0.3v23.8l0.3,0.3
	l9.6,9.6h3.1l-10.8-10.8v-18.8c1.1,0.9,2.5,1.4,4,1.4c3.4,0,6.1-2.7,6.1-6.1S436.5,562.3,433.1,562.3L433.1,562.3z M627,573.9v23.7
	h23.7v-23.7H627z M487.2,575.2c-6.4,0-11.6,5.2-11.6,11.6s5.2,11.5,11.6,11.5s11.6-5.2,11.6-11.5S493.6,575.2,487.2,575.2z
	 M437.5,581.4c-2.7,0-4.9,2.2-4.9,4.8c0,2.7,2.2,4.8,4.9,4.8c2.1,0,3.9-1.4,4.5-3.3h8.1l4.4,4.4v7.6l0.3,0.3l2.6,2.6h3.1l-3.9-3.9
	v-7.6l-0.3-0.3l-5.1-5.1l-0.3-0.3h-8.8C441.9,583.2,439.9,581.4,437.5,581.4L437.5,581.4z M840.2,591.9c-5.9,0-10.6,4.8-10.6,10.6
	c0,0.1,0,0.2,0,0.2h21.2c0-0.1,0-0.2,0-0.2C850.8,596.6,846.1,591.9,840.2,591.9L840.2,591.9z M732.1,592v10.8h20.1V592H732.1z
	 M878.7,592c-5.9,0-10.6,4.8-10.6,10.7c0,0,0,0.1,0,0.1h21.3c0,0,0-0.1,0-0.1C889.4,596.8,884.6,592,878.7,592L878.7,592z
	 M916.6,592c-5.9,0-10.6,4.8-10.6,10.7c0,0,0,0.1,0,0.1h21.3c0,0,0-0.1,0-0.1C927.3,596.8,922.5,592,916.6,592L916.6,592z
	 M446.9,592.4c-2.7,0-4.8,2.1-4.8,4.8c0,2.7,2.1,4.9,4.8,4.9c0.9,0,1.8-0.3,2.5-0.8l1.4,1.4h3.1l-3-3c0.5-0.7,0.8-1.6,0.8-2.5
	C451.8,594.6,449.6,592.4,446.9,592.4L446.9,592.4z"/>
</svg>
